<svg width="180" height="180" viewBox="0 0 180 180" fill="none" xmlns="http://www.w3.org/2000/svg">
<g clip-path="url(#clip0_10411_41074)">
<path d="M18.552 131.878C18.552 131.991 18.552 132.126 18.552 132.238C18.0796 132.373 17.6071 132.508 17.1797 132.148C17.4497 132.058 17.7196 131.991 17.9896 131.901C18.1696 131.698 18.3495 131.698 18.552 131.878Z" fill="#ACA519"/>
<path d="M161.975 130.416C162.11 130.708 162.245 130.978 162.38 131.271C161.728 131.586 161.458 131.001 161.053 130.708C159.321 129.426 157.949 127.739 156.195 126.456C152.844 123.442 149.605 120.27 146.164 117.345C145.399 116.715 144.634 116.535 143.645 116.693C141.171 117.053 138.697 117.503 136.223 117.773C131.882 118.268 128.891 120.675 126.552 124.117C126.214 124.612 126.034 125.174 126.237 125.759C126.574 126.749 126.237 127.559 125.63 128.301C124.482 129.719 123.718 131.428 122.458 132.756C120.322 134.983 117.555 135.68 114.631 136.018C111.483 136.355 108.334 136.76 105.253 137.637C103.453 138.132 102.059 139.392 100.35 140.045C97.3359 141.169 94.4345 142.632 91.0609 142.429C89.3515 142.317 87.7322 141.957 86.1128 141.462C83.5264 140.675 81.0524 139.617 78.4659 138.807C77.9261 138.627 77.3638 138.447 77.049 137.885C76.7791 136.94 77.004 136.13 77.7687 135.478C78.6008 135.118 79.3655 135.5 80.1527 135.68C83.7513 136.558 87.3274 137.547 91.0834 137.502C95.1317 137.457 98.6853 136.04 102.036 133.88C102.194 133.768 102.014 133.925 102.149 133.79C102.891 133.183 103.858 132.576 103.611 131.496C103.363 130.461 102.239 130.438 101.362 130.236C100.125 129.966 98.8877 129.966 97.6282 129.966C96.7511 129.966 95.784 129.943 95.5141 128.886C95.2667 127.806 95.0418 126.659 96.2563 125.917C96.4137 125.804 96.5487 125.692 96.5487 125.354C95.7615 124.882 94.9068 125.422 94.0747 125.354C91.7806 125.939 89.7789 125.399 87.7997 124.117C86.2703 123.127 84.426 122.744 82.7617 121.957C82.1094 121.642 80.67 121.552 81.7046 120.63C83.8862 121.215 84.561 121.237 87.2824 121.62C89.3066 121.732 90.4761 121.642 91.9605 121.867C93.9622 122.16 95.9639 122.384 97.8531 123.104C98.4604 123.329 99.0677 123.464 99.6974 123.284C101.452 122.767 103.184 123.509 104.938 123.329C105.343 124.027 104.69 124.162 104.331 124.364C103.836 124.657 103.251 124.747 102.959 124.702C104.106 124.589 105.478 124.297 106.827 123.937C111.82 122.654 116.656 120.855 121.356 118.74C123.066 117.975 124.775 117.278 126.349 116.175C129.475 113.926 131.05 110.619 132.557 107.289C133.187 105.894 133.929 104.522 134.513 103.105C134.693 102.655 134.941 102.25 135.458 102.07C137.662 101.98 139.641 103.015 141.733 103.442C142.79 103.824 143.892 103.982 144.949 104.342C145.399 104.567 145.984 104.544 146.209 105.129C145.422 108.121 146.344 110.754 148.121 113.093C151.494 117.525 155.16 121.755 158.691 126.051C159.838 127.469 160.873 128.976 161.975 130.416Z" fill="#F2911A"/>
<path d="M17.1349 48.2569C17.1124 48.1669 17.0899 48.0769 17.0449 47.9869C19.2265 47.8294 21.4082 47.492 23.5673 48.2344C24.1521 48.4369 24.8043 48.4144 25.4341 48.4144C29.5949 48.3244 33.6883 48.8193 37.8266 49.1793C40.4581 49.4042 43.112 49.4717 45.7434 48.9993C46.1708 48.9318 46.5981 48.8193 47.0254 48.8193C47.5877 48.8193 48.3299 48.7068 48.4199 49.4717C48.5098 50.1466 47.8801 50.4616 47.3178 50.6191C45.496 51.0915 43.5618 50.9115 41.74 51.3615C38.2314 52.2164 34.8803 51.249 31.6866 50.7091C32.6762 51.114 33.8907 51.294 35.1277 51.384C37.2194 51.5639 38.4788 53.0262 39.266 54.8035C40.2331 56.9857 41.5376 58.9205 42.9546 60.8102C43.3819 61.3951 43.8767 61.9351 44.4615 62.3625C45.7434 63.3074 46.7106 63.2849 48.015 62.3625C50.1067 60.8552 51.7935 58.943 53.4354 57.0082C54.7398 55.4559 54.6274 54.9835 53.0755 53.7012C52.2658 53.0263 51.4786 52.3063 50.7589 51.519C50.3766 51.114 49.9043 50.7091 49.9942 50.0342C52.7606 47.582 53.5928 44.4774 53.1655 40.9004C52.4233 35.0287 50.534 29.4494 49.0946 23.7577C48.5998 21.8679 47.8126 20.0232 47.9701 17.9985C48.7123 17.7285 48.8472 18.4034 49.0946 18.8083C50.8489 21.643 52.0859 24.7475 53.7277 27.6272C56.3592 32.2615 58.2934 37.1884 59.5079 42.3852C59.6429 42.9476 59.8228 43.4875 60.1152 44.005C60.7 45.0848 61.5546 45.6472 62.8366 45.4673C66.5251 44.9498 70.1237 44.05 73.7447 43.2626C75.2966 42.9251 76.736 42.2277 78.108 41.4178C81.4367 39.4606 84.9678 38.1557 88.9262 38.3357C90.523 38.4032 92.0974 38.7407 93.6043 39.1681C96.6631 40.023 99.6544 41.1254 102.668 42.1152C103.073 42.5427 102.871 42.9926 102.736 43.4425C102.556 43.78 102.443 44.1624 102.106 44.4099C101.566 44.6349 101.071 44.4099 100.554 44.2749C98.8222 43.825 97.1354 43.2851 95.4036 42.8351C90.5905 41.5978 85.8674 41.7778 81.2567 43.735C77.6132 45.2873 73.8122 46.3446 70.0787 47.6495C65.7829 49.1793 62.1844 51.5415 59.5979 55.4109C57.2139 58.9655 54.47 62.2725 52.2658 65.962C50.4216 69.0441 49.7693 72.3961 49.6569 75.9057C49.5894 78.0879 49.5219 78.2229 47.4303 78.7403C44.8213 78.4928 42.3023 77.8854 39.9183 76.7381C39.4909 75.9957 39.311 75.2308 39.5134 74.3759C40.503 70.1015 39.1986 66.2995 37.0619 62.6775C35.3751 59.8203 33.0585 57.7281 30.1347 56.1308C26.0863 53.9261 22.1954 51.384 18.147 49.1568C17.7646 48.8418 17.5172 48.4819 17.1349 48.2569Z" fill="#B22F89"/>
<path d="M102.447 43.3525C102.515 42.97 102.605 42.5876 102.672 42.1826C102.447 41.7552 102.627 41.4627 102.942 41.1928C104.224 40.7653 105.394 41.4177 106.631 41.5077C109.667 41.7552 112.636 42.2951 115.425 43.6674C117.044 44.4548 118.528 45.4447 119.81 46.682C122.127 48.9317 124.039 51.5414 125.86 54.2185C126.872 55.7033 128.334 56.6257 129.661 57.728C132.068 59.7303 134.452 61.7775 136.903 63.7122C138.748 65.1745 139.445 65.242 141.424 63.8922C142.841 62.9248 144.191 62.1599 146.08 62.4749C147.474 62.6999 148.554 61.5525 149.521 60.6077C152.062 58.1105 154.604 55.5908 157.078 53.0262C158.382 51.6764 159.889 50.529 161.239 49.2242C161.531 48.9317 161.846 48.5718 162.363 48.8417C162.161 49.2242 161.936 49.5841 161.734 49.9666C157.393 55.8608 152.805 61.5525 148.126 67.1768C146.665 68.9315 145.967 70.6638 147.069 72.846C147.384 73.4759 147.407 74.1508 147.114 74.8032C146.012 75.7931 144.55 75.8381 143.246 76.243C141.492 76.783 141.289 77.0979 142.076 78.7852C142.999 80.7425 144.37 82.1598 146.507 82.8572C148.981 83.6671 151.163 85.1968 153.682 85.8718C158.157 87.0641 162.768 87.4915 167.311 88.3239C169.628 88.7514 172.012 88.8189 174.171 89.8987C174.239 89.9437 174.306 89.9887 174.373 90.0337C174.239 90.1012 174.126 90.1687 173.991 90.2362C171.787 91.0236 169.47 91.181 167.199 91.451C163.218 91.9234 159.282 92.5534 155.324 93.0933C152.422 93.4757 149.768 94.7131 147.272 96.1979C145.09 97.4802 143.673 99.4824 142.886 101.935C142.661 102.632 142.594 103.487 141.739 103.847C139.625 103.352 137.533 102.857 135.419 102.362C135.149 102.25 134.789 102.34 134.632 102.002C134.34 101.035 134.879 100.292 135.352 99.5949C137.871 95.8829 138.23 91.856 137.466 87.5365C136.859 84.072 135.824 80.6975 135.397 77.1879C135.239 75.8831 135.217 74.6008 135.082 73.296C134.654 69.044 132.675 65.602 129.819 62.6099C126.288 58.9204 122.667 55.3434 119.338 51.4289C116.482 48.0543 112.591 46.0296 108.16 45.2197C106.698 44.9498 105.214 44.6573 103.774 44.3198C103.257 44.1624 102.515 44.2074 102.447 43.3525Z" fill="#DA0B1E"/>
<path d="M131.013 17.5486C131.373 17.3462 131.732 17.1437 132.092 16.9412C132.16 17.3462 132.272 17.7511 132.272 18.1561C132.25 27.1099 132.295 36.0862 132.092 45.0399C132.047 47.4696 132.7 47.987 135.061 47.9421C144.013 47.7171 152.986 47.7621 161.938 47.7171C162.32 47.7171 163.76 47.2222 162.635 48.572C161.645 48.7744 161.038 49.5843 160.229 50.1243C155.888 52.9814 151.637 55.9735 147.274 58.8081C145.384 60.0454 143.27 60.8553 141.359 62.0927C139.514 63.285 137.558 62.7901 135.938 61.5977C133.397 59.6855 130.743 57.9532 128.224 55.996C126.11 54.3537 124.693 52.059 123.096 49.9668C121.207 47.4696 119.182 45.0624 116.888 42.9477C114.302 40.5855 114.527 38.6508 116.641 36.3561C118.575 34.2414 120.262 31.9917 121.971 29.742C124.828 25.985 127.594 22.1605 130.495 18.4485C130.743 18.1786 130.968 17.9086 131.013 17.5486Z" fill="#E4122E"/>
<path d="M131.015 17.5485C131.667 18.2009 130.992 18.5833 130.678 18.9883C127.236 23.6001 123.795 28.1895 120.287 32.7564C119.027 34.3987 117.565 35.8385 116.306 37.4808C115.046 39.1231 115.136 40.6978 116.756 42.1826C120.647 45.7147 123.615 50.0341 126.877 54.1285C128.136 55.6808 129.98 56.8507 131.712 57.9305C133.736 59.2129 135.311 61.0801 137.627 61.98C139.157 62.5874 140.416 62.205 141.721 61.5075C148.4 57.908 154.473 53.3636 160.838 49.2692C161.4 48.9092 161.94 48.4818 162.682 48.5718C162.592 48.6618 162.502 48.7518 162.39 48.8643C157.937 52.4863 154.113 56.7607 149.997 60.7427C148.535 62.16 147.073 63.4648 144.689 62.8124C143.43 62.4749 142.485 63.6898 141.563 64.3872C139.764 65.737 138.257 65.467 136.638 64.1172C133.556 61.53 130.273 59.1454 127.349 56.4007C125.505 54.691 123.998 52.5987 122.581 50.5065C118.78 44.8598 113.269 42.4751 106.725 41.9127C105.488 41.8002 104.273 41.5302 103.036 41.3503C102.924 41.2603 102.834 41.1253 102.811 40.9678C102.699 40.2029 103.171 39.5505 103.239 38.8081C103.643 37.1883 104.003 35.5685 104.498 33.9937C104.655 33.4988 104.745 32.9589 105.195 32.6214C106.455 32.1265 107.872 32.3965 109.154 31.969C111.425 31.2266 113.382 29.9218 115.316 28.572C118.645 26.2323 121.906 23.7801 125.19 21.3505C126.179 20.6081 127.349 20.1131 128.181 19.1907C129.103 18.6283 130.048 18.0884 131.015 17.5485Z" fill="#E30623"/>
<path d="M102.969 41.0128C102.992 41.1253 103.014 41.2153 103.014 41.3278C102.902 41.6202 102.789 41.9127 102.654 42.1827C100.338 42.0927 98.2686 41.1028 96.1769 40.2929C89.4296 37.7058 83.2671 38.5832 77.1046 42.3401C73.2361 44.6798 68.4905 44.8148 64.0823 45.6022C60.5287 46.2321 59.7415 45.5347 58.7969 41.3953C56.8177 32.8239 52.1396 25.4899 48.0687 17.8859C47.9562 17.8184 47.8663 17.7285 47.8213 17.5935C47.9562 17.0535 48.3386 17.346 48.6535 17.3685C51.105 20.2031 53.1517 23.3527 55.4682 26.2998C56.3904 27.4696 57.1551 28.752 58.1447 29.8768C59.9214 31.9465 60.9335 34.4662 61.9456 36.9634C63.3176 40.3154 65.6791 41.7102 69.3002 41.3053C70.9645 41.1253 72.6514 41.1928 74.3157 40.8104C75.8676 40.4504 76.0925 40.0455 75.8001 38.4707C75.5752 37.2783 74.743 36.1535 75.2153 34.8487C75.3503 34.7137 75.5077 34.5787 75.6876 34.5112C79.3762 33.2514 81.3779 30.4842 82.6149 26.9297C84.4816 21.5079 86.1685 16.0412 87.8778 10.5744C88.2601 9.38207 88.6874 8.21223 89.1373 7.04239C89.2722 6.79492 89.4072 6.54745 89.5196 6.29999C90.4867 6.72743 90.1494 7.58232 90.0819 8.27972C89.5871 12.9816 88.7774 17.616 88.3051 22.3178C88.0352 25.04 87.383 27.7171 87.248 30.4842C87.1581 32.464 88.0577 33.6563 89.677 34.5112C91.1165 35.2986 92.6234 35.9285 94.1303 36.5809C96.7167 37.7283 99.2132 39.1231 101.89 40.0905C102.339 40.3154 102.767 40.4954 102.969 41.0128Z" fill="#B6358B"/>
<path d="M91.1776 172.463C90.8177 173.093 90.4354 173.745 90.0755 174.375C89.8731 174.083 89.6707 173.813 89.4683 173.52C87.6915 168.031 86.7469 162.317 85.2625 156.76C84.8576 155.298 84.3628 153.903 83.4407 152.71C82.1362 150.978 80.8317 149.268 79.6172 147.469C78.6276 145.984 76.9633 145.444 75.5688 144.522C75.4564 144.409 75.3664 144.297 75.3214 144.139C75.2315 143.914 75.209 143.689 75.209 143.464C75.209 143.239 75.2765 143.014 75.3439 142.789C75.5239 142.429 75.7488 142.137 76.1761 142.047C78.3127 142.384 80.2245 143.284 81.8438 144.702C83.3282 146.006 84.8576 147.266 86.3645 148.526C87.669 149.606 89.1759 150.393 90.8402 150.798C93.899 151.518 96.5979 150.483 98.3522 147.851C99.4093 146.254 100.579 144.657 102.378 143.892C102.738 143.734 103.053 143.644 103.255 143.307C104.83 140.765 107.506 141.192 109.845 141.507C113.286 141.979 116.48 143.464 119.764 144.567C121.495 145.152 122.822 146.366 123.722 147.986C125.881 151.901 128.423 155.613 130.582 159.527C130.942 160.179 131.549 160.787 131.189 161.642C130.537 161.912 130.199 161.417 129.885 161.034C126.871 157.345 123.767 153.723 120.708 150.078C119.224 148.301 117.537 146.906 115.355 146.051C114.096 145.556 112.859 145.017 111.667 144.409C109.958 143.532 108.158 143.487 106.314 143.577C105.639 143.622 105.1 143.869 104.852 144.567C104.74 144.882 104.605 145.219 104.335 145.421C102.401 147.041 101.051 149.156 99.4993 151.091C97.9249 153.07 96.6429 155.095 95.8782 157.57C94.3038 162.564 92.707 167.491 91.1776 172.463Z" fill="#C26C16"/>
<path d="M131.075 161.664C129.208 157.435 126.127 153.857 124.238 149.673C121.921 144.521 116.928 144.229 112.655 142.631C111.013 142.024 109.236 141.417 107.324 141.822C103.883 142.541 101.094 144.656 99.385 147.266C95.5166 153.183 89.6689 151.878 85.688 148.548C82.7417 146.051 80.0428 143.149 76.0619 142.249C75.8594 142.069 75.8145 141.844 75.8145 141.597C75.8594 141.169 76.0619 140.832 76.5117 140.697C78.3334 140.832 79.9078 141.687 81.4597 142.542C83.9562 143.891 86.2053 145.669 88.8592 146.748C90.9284 147.581 92.9526 147.648 94.9993 146.681C96.2138 146.096 97.3608 145.399 98.4404 144.589C99.52 143.779 100.667 143.059 101.927 142.542C102.331 142.384 102.804 142.249 103.029 141.889C104.243 139.954 106.245 139.977 108.157 139.864C111.125 139.707 114.004 140.224 116.861 140.922C118.885 141.417 120.931 141.619 123.001 141.597C124.418 141.574 125.632 141.214 126.689 140.247C127.724 139.302 128.443 139.504 128.916 140.854C129.433 142.317 129.5 143.869 129.725 145.399C130.31 148.998 130.737 152.62 131.66 156.152C132.042 157.682 131.885 159.279 132.177 160.809C132.177 161.484 132.177 162.159 132.177 162.834C131.525 162.744 131.007 162.496 131.075 161.664Z" fill="#D67810"/>
<path d="M50.0881 50.0115C51.3925 51.2713 52.6745 52.5761 54.0465 53.791C55.0136 54.6459 55.2385 55.3883 54.4063 56.4681C52.4721 58.9878 50.3579 61.3949 47.704 63.1047C45.4999 64.522 43.9705 62.7673 42.756 61.1925C41.2491 59.2352 39.8322 57.188 38.865 54.8258C38.0779 52.9136 36.6384 51.4738 34.2094 51.7213C32.7025 51.8562 31.5555 50.8214 29.8686 50.3489C32.635 50.1015 34.9516 51.1588 37.2907 51.1138C40.7093 51.0463 44.1054 50.5064 47.5016 50.1015C47.8165 50.0565 48.3562 49.8765 48.1763 49.3591C48.1088 49.2016 47.5691 49.0666 47.2992 49.1341C39.5173 50.7989 31.8029 48.6392 24.0435 48.5942C21.8618 48.5942 19.4328 48.0767 17.0938 47.9643C17.5211 47.8743 17.9484 47.6718 18.3757 47.6943C27.642 47.7393 36.9308 47.7843 46.1971 47.8968C47.5016 47.9193 47.9064 47.5593 47.8839 46.232C47.8165 41.1477 47.8614 36.0409 47.8614 30.9565C48.7836 31.294 48.5587 32.1264 48.5812 32.7788C48.6036 37.5932 48.6261 42.4075 48.5812 47.2219C48.5812 47.4693 48.5587 47.6943 48.6486 47.9193C49.0535 48.6617 49.9081 49.0891 50.0881 50.0115Z" fill="#B7368C"/>
<path d="M75.2583 34.9387C75.3932 35.5012 75.5057 36.0636 75.6631 36.6035C76.8551 40.743 76.8776 40.8329 72.6493 41.5079C69.8604 41.9353 67.0265 41.8903 64.3051 40.9454C63.338 40.608 62.6183 39.7756 62.2809 38.7857C59.7395 31.3392 54.2517 25.8275 49.9109 19.5508C49.4161 18.8534 49.0562 18.066 48.6289 17.3236C49.4161 17.7735 50.1808 18.201 50.968 18.6509C56.3883 22.7454 61.6737 26.9973 67.1615 30.9793C69.5231 32.689 72.132 33.8814 75.1458 33.9489C75.5282 34.2638 75.5282 34.6013 75.2583 34.9387Z" fill="#BB3D8F"/>
<path d="M102.97 41.0127C98.584 39.0555 94.1758 37.1433 89.8125 35.1185C86.8662 33.7462 86.3264 32.0589 86.8887 28.4819C87.9233 21.6203 88.8004 14.7588 89.7001 7.8747C89.7676 7.37976 89.5651 6.86233 89.4977 6.3449C89.6776 6.09744 89.8575 5.87247 90.0599 5.625C90.2399 5.93996 90.4198 6.23242 90.6222 6.54738C92.5564 12.5091 93.681 18.6732 95.4353 24.6799C96.2225 27.4021 96.8747 30.0567 96.3124 32.9138C96.1325 33.8137 96.6273 34.5561 97.1896 35.276C98.8539 37.3232 101.193 38.2006 103.577 39.033C103.352 39.6854 103.15 40.3378 102.97 41.0127Z" fill="#BB3E8F"/>
<path d="M174.197 89.8946C167.202 88.5901 159.982 88.2527 153.212 86.0486C149.411 84.8116 145.161 83.9119 142.529 80.3584C141.922 79.5262 141.495 78.5141 141.135 77.547C140.775 76.6024 141.495 76.2875 142.214 76.0626C143.811 75.5678 145.408 75.0955 146.982 74.6007C147.185 74.4207 147.41 74.4207 147.635 74.5782C155.889 79.3013 164.143 84.0244 172.397 88.77C173.005 89.1074 173.589 89.5122 174.197 89.8946Z" fill="#E41332"/>
<path d="M103.529 39.0104C101.212 39.5728 95.5222 35.7933 95.882 33.5661C96.7142 28.4593 94.4876 23.9824 93.5205 19.258C92.6433 14.9836 91.1139 10.8891 90.6191 6.52472C95.5222 15.1186 100.448 23.6899 105.351 32.2838C105.441 32.3512 105.486 32.4187 105.463 32.4862C105.441 32.5537 105.396 32.5987 105.373 32.5987C104.743 34.7584 104.136 36.8956 103.529 39.0104Z" fill="#C64E97"/>
<path d="M6.02984 90.2363C5.89489 90.1688 5.75995 90.1238 5.625 90.0563C5.69247 90.0113 5.73746 89.9438 5.80493 89.8988C6.25475 89.7189 6.74955 89.6739 7.19937 89.5389C11.7201 88.999 16.2857 88.6615 20.8064 88.1216C22.2908 87.9416 23.7752 88.0091 25.2821 88.0541C26.1818 88.0991 26.969 88.459 27.6662 89.0215C31.4672 92.0586 35.1782 95.2081 37.5397 99.595C38.237 100.877 39.0241 102.205 38.5743 103.802C38.4619 104.004 38.3044 104.184 38.1695 104.364C37.7197 104.769 37.7197 105.354 37.8546 105.849C38.3494 107.761 37.8996 109.561 37.2698 111.338C36.7525 112.823 36.7975 114.308 37.2249 115.725C37.7871 117.683 37.2249 119.1 35.5155 120.112C35.1332 120.337 34.8633 120.675 34.5709 120.99C32.1194 122.992 29.263 124.409 26.6766 126.231C26.2043 126.569 25.7544 126.929 25.3046 127.266C24.8548 127.604 24.36 128.009 23.7527 127.536C23.6853 126.771 24.27 126.434 24.7424 126.051C26.834 124.342 28.9707 122.722 31.1748 121.192C33.109 119.887 34.2336 118.335 33.5138 115.86C33.064 114.331 33.6038 112.891 34.256 111.541C35.3356 109.314 36.2128 107.064 35.8079 104.499C36.1228 103.397 35.583 102.475 34.9758 101.71C33.6263 99.9775 32.1419 98.3352 29.8703 97.7953C29.5329 97.7053 29.2406 97.5928 29.0381 97.2779C28.161 93.8133 27.3063 93.0709 23.5953 92.531C18.8947 91.8561 14.1491 91.5411 9.44847 90.9562C8.23396 90.7987 7.1319 90.4838 6.02984 90.2363Z" fill="#D7CE01"/>
<path d="M7.28714 89.9213C6.79234 89.9213 6.29754 89.8988 5.80273 89.8988C8.00685 88.6389 10.1885 87.4016 12.3926 86.1418C14.6417 85.2644 16.6659 83.9596 18.825 82.9247C22.2886 81.2599 25.7523 79.6176 29.1484 77.7954C30.093 77.3005 31.0601 76.8055 31.7124 75.9731C32.4321 75.0508 33.3092 74.6233 34.4563 74.7583C34.6812 74.7583 34.9061 74.7808 35.131 74.8258C35.6708 75.0283 36.3455 74.9608 36.5929 75.6807C35.221 77.5929 33.4667 78.9427 31.33 80.0226C28.2712 81.5749 27.8439 84.4995 30.0031 87.2891C31.4875 89.2014 33.2642 90.8436 34.7936 92.7109C37.1102 95.523 39.0219 98.5826 40.0565 102.092C40.4164 103.329 40.169 103.622 38.9995 103.779C37.8299 99.0325 35.0185 95.343 31.42 92.171C30.093 91.0011 28.856 89.6963 27.619 88.414C26.4495 87.2216 25.1225 86.7267 23.4582 87.0866C18.3302 88.1665 13.1573 88.9539 7.98436 89.6513C7.69198 89.6738 7.46707 89.7638 7.28714 89.9213Z" fill="#E4DA06"/>
<path d="M75.5288 144.296C77.6204 144.926 79.0824 146.321 80.5443 147.918C86.3245 154.218 86.9092 162.384 88.7985 170.078C89.0684 171.203 89.7881 172.26 89.4507 173.52C84.7276 165.826 80.8816 157.66 76.5409 149.763C76.0461 148.863 75.3264 148.076 74.6966 147.244C74.5167 147.109 74.4717 146.929 74.4492 146.704C74.4717 146.434 74.5392 146.164 74.5842 145.916C74.6516 145.579 74.7641 145.264 74.8541 144.926C75.0115 144.634 75.034 144.229 75.5288 144.296Z" fill="#9D5718"/>
<path d="M131.08 161.664C131.462 162.046 131.844 162.451 132.227 162.834C131.282 163.194 130.855 162.316 130.18 161.979C128.133 160.089 126.042 158.267 123.95 156.445C121.701 154.487 119.452 152.53 117.293 150.483C114.594 147.918 111.198 146.681 107.914 145.219C106.497 144.589 105.732 145.061 105.26 146.479C105.193 146.704 105.058 146.906 104.9 147.086C102.921 148.233 101.931 150.168 100.919 152.08C98.8726 155.927 97.0508 159.909 95.409 163.959C94.5543 166.028 93.2948 167.918 92.5751 170.033C92.1028 170.843 91.653 171.63 91.1807 172.44C91.2481 169.785 92.4627 167.446 93.0924 164.926C94.6443 158.672 96.9609 152.778 101.167 147.806C102.381 146.389 103.663 144.904 104.923 143.689C106.43 142.249 109.128 143.149 111.378 143.779C118.8 145.871 122.781 151.9 127.346 157.3C128.561 158.784 129.82 160.224 131.08 161.664Z" fill="#B96617"/>
<path d="M17.1465 48.2567C21.6897 50.214 25.6256 53.3185 30.0338 55.5007C35.0268 57.9754 37.7707 62.0699 39.615 66.9967C40.4247 69.1789 40.5146 71.4736 40.0423 73.7908C39.8624 74.6232 39.9524 75.5005 39.9074 76.3779C39.7949 76.4904 39.6825 76.5579 39.525 76.6029C38.6479 76.6029 37.7707 76.4679 36.9836 76.0855C36.8711 75.9955 36.7586 75.883 36.6912 75.7705C36.3763 75.0956 36.3313 74.3757 36.4888 73.6558C36.8261 72.1935 36.6237 70.7987 36.1289 69.4039C34.7569 65.4894 32.4854 62.2723 29.3141 59.5727C25.6931 56.4906 22.2295 53.2285 18.6534 50.079C18.3835 49.9215 18.271 49.539 17.9112 49.5165C17.6638 49.0666 17.3939 48.6617 17.1465 48.2567Z" fill="#A42682"/>
<path d="M141.76 103.821C143.716 95.9713 149.699 93.4748 156.829 92.5077C162.541 91.743 168.277 91.0008 174.012 90.2361C173.517 90.5285 173.022 90.7984 172.55 91.0907C166.32 93.3398 160 95.364 153.747 97.5682C151.116 98.4903 148.957 100.177 146.843 101.931C146.348 102.359 146.078 102.899 145.853 103.483C145.673 103.978 145.538 104.518 144.953 104.698C143.874 104.428 142.817 104.113 141.76 103.821Z" fill="#C1161A"/>
<path d="M20.1343 126.681C24.2277 119.64 28.3211 112.598 32.4144 105.557C32.7068 104.432 31.6497 104.319 31.0875 104.027C29.4906 103.149 27.8038 102.452 26.2069 101.575C25.0824 100.945 23.9578 100.27 22.7658 99.7973C17.3679 96.7153 11.9701 93.6332 6.57227 90.5736C6.95461 90.2136 7.38194 90.4161 7.78678 90.5286C13.7019 92.1034 19.4596 94.1056 25.0824 96.4903C26.4318 97.0527 27.6463 97.8176 28.7934 98.6725C29.8729 99.4599 30.975 100.225 32.0771 100.99C33.449 101.935 34.6635 103.127 34.8884 104.949C33.7639 105.714 33.0892 106.771 32.7518 108.054C32.5269 108.954 32.0546 109.741 31.5823 110.506C28.4785 115.478 25.1498 120.315 21.9786 125.241C21.5738 125.826 21.3264 126.884 20.1343 126.681Z" fill="#A19A1E"/>
<path d="M34.7513 104.949C33.5817 101.597 30.4555 100.27 27.8465 98.56C22.5386 95.0954 16.3761 93.5431 10.416 91.6759C9.15649 91.2709 7.98696 90.4386 6.59252 90.551C6.41259 90.4386 6.23266 90.3486 6.05273 90.2361C12.5077 90.9335 18.9851 91.4959 25.395 92.4183C27.914 92.7782 29.6908 94.443 29.2859 97.4576C30.9503 99.5273 33.2668 100.945 34.7962 103.127C35.0886 103.554 35.5384 103.892 35.6059 104.454C35.6059 106.276 35.2011 107.964 34.2565 109.538C33.8966 110.146 33.4918 110.798 33.3118 111.496C32.2772 115.59 29.5109 118.537 26.7669 121.529C25.0801 123.374 23.5282 125.354 21.8414 127.176C21.0542 128.031 20.492 129.223 19.12 129.336C18.8501 128.233 19.8397 127.739 20.312 127.064C24.158 121.732 28.3413 116.648 31.8274 111.046C32.5471 109.876 32.8845 108.571 33.1769 107.266C33.4243 106.276 33.7841 105.399 34.7513 104.949Z" fill="#C2BA0B"/>
<path d="M156.541 126.364C158.498 128.006 160.455 129.625 162.411 131.267C162.636 131.559 162.861 131.829 163.086 132.122C163.086 132.144 163.041 132.212 163.019 132.234C162.974 132.257 162.929 132.234 162.884 132.212C162.524 132.189 162.164 132.144 161.826 131.987C156.946 128.906 151.93 126.094 146.982 123.125C145.858 122.451 144.598 122.068 143.271 122.158C139.358 122.406 135.377 122.203 131.846 124.407C130.339 125.352 128.967 126.477 127.64 127.624C126.133 127.016 125.841 126.004 126.875 124.745C128.742 122.518 131.149 121.056 133.78 119.932C136.434 118.807 139.268 118.605 142.102 118.402C142.394 118.38 142.687 118.447 142.957 118.357C145.993 117.48 148.174 118.807 150.289 120.854C152.223 122.81 154.315 124.677 156.541 126.364Z" fill="#E98509"/>
<path d="M75.5272 143.442C75.5272 143.622 75.5048 143.824 75.5048 144.004C74.9425 144.499 74.2453 144.454 73.593 144.409C71.8612 144.296 70.2644 144.769 68.7575 145.556C67.3405 146.299 65.8561 146.861 64.3042 147.176C62.2576 147.581 60.7282 148.706 59.4012 150.258C56.3424 153.88 53.2836 157.525 50.2249 161.169C49.82 161.642 49.3027 162.002 48.9204 162.496C48.583 162.676 48.2232 162.879 47.8858 163.059C47.8633 162.699 47.8408 162.339 47.8408 161.957C47.9533 161.844 48.0207 161.732 48.0657 161.597C48.8979 158.402 50.6747 155.59 51.9117 152.575C52.7888 150.438 53.756 148.346 54.858 146.299C55.8926 144.364 56.5673 143.981 58.6815 144.409C62.28 145.129 65.7437 144.724 69.1623 143.352C71.2315 142.474 73.4131 142.294 75.5272 143.442Z" fill="#BFB70D"/>
<path d="M104.743 146.905C105.575 144.229 106.205 144.274 109.129 145.264C115.426 147.445 119.654 152.303 124.49 156.397C126.064 157.724 127.616 159.073 129.123 160.49C129.55 160.895 130.383 161.097 130.158 161.974C125.727 159.388 121.296 156.779 116.866 154.192C113.379 152.056 110.141 149.492 106.362 147.85C106.047 147.715 105.71 147.378 105.328 147.76C104.923 148.435 104.518 149.109 104.113 149.784C102.786 149.694 103.326 148.862 103.551 148.255C103.753 147.67 104.45 147.468 104.743 146.905Z" fill="#915017"/>
<path d="M19.1482 129.269C26.1204 122.002 33.475 114.983 35.3417 104.387C35.5441 104.207 35.7241 104.229 35.9265 104.387C36.9161 106.997 35.7465 109.246 34.667 111.496C33.9248 113.048 33.43 114.645 33.9248 116.31C34.6445 118.672 33.385 120 31.7207 121.26C29.0217 123.284 26.1204 125.062 23.7588 127.536C23.8938 128.346 23.1066 128.459 22.7467 128.909C21.2398 130.078 19.4855 130.888 18.0236 132.103C17.7537 132.328 17.4614 132.396 17.1465 132.148C17.169 131.068 17.9787 130.393 18.4735 129.539C18.7209 129.426 18.8108 129.066 19.1482 129.269Z" fill="#CDC403"/>
<path d="M17.9004 49.4716C18.2827 49.0666 18.3952 49.4716 18.5526 49.6965C19.8571 50.7764 20.9142 52.0812 22.0162 53.3635C25.165 57.0755 28.5161 60.6076 31.395 64.522C33.5091 67.4016 35.3309 70.4837 35.1735 74.2857C35.151 74.5782 35.196 74.8706 35.0385 75.1181C34.8586 75.1181 34.6787 75.1181 34.4988 75.1406C33.8465 74.8481 32.9919 75.2306 32.4521 74.5332C27.6165 66.1868 22.7584 57.8179 17.9004 49.4716Z" fill="#75205D"/>
<path d="M50.0919 50.0115C49.5971 49.5391 49.1248 49.0442 48.63 48.5717C48.5625 48.1443 48.4726 47.6718 48.7425 47.3119C50.3618 45.1972 50.0245 42.7225 49.822 40.3603C49.2148 33.2513 48.1127 26.1872 47.7979 19.0332C47.7979 18.5608 47.7979 18.0658 47.7979 17.5934C47.8878 17.6834 47.9778 17.7734 48.0453 17.8858C49.7096 24.32 51.4639 30.7316 53.0383 37.1882C54.0504 41.3502 54.4102 45.5121 51.4864 49.2241C51.1265 49.6966 50.7442 50.0565 50.0919 50.0115Z" fill="#9A247B"/>
<path d="M161.983 130.416C158.699 126.546 155.37 122.722 152.176 118.762C149.747 115.77 146.734 113.116 145.789 109.156C145.474 107.874 144.867 106.389 146.171 105.197C146.396 104.949 146.711 104.882 147.026 104.882C147.341 104.927 147.656 104.972 147.746 105.354C150.76 110.618 153.751 115.86 156.742 121.125C158.496 124.229 160.251 127.334 161.983 130.416Z" fill="#F8B11F"/>
<path d="M162.024 131.854C162.294 131.966 162.564 132.101 162.834 132.214C160.247 132.214 157.661 132.214 155.097 132.214C156.356 131.247 157.773 131.921 159.078 131.854C154.085 130.977 149.136 129.942 144.188 128.862C140.477 128.053 136.834 128.188 133.145 128.84C132.021 129.042 131.391 130.009 130.356 130.302C129.479 130.257 128.985 129.785 128.85 128.93C130.312 126.523 132.583 125.489 135.282 125.084C139.6 124.432 143.784 124.702 147.899 126.411C151.948 128.098 156.199 129.2 160.225 130.954C160.832 131.202 161.417 131.584 162.024 131.854Z" fill="#C26C16"/>
<path d="M75.2561 34.9384C75.1662 34.646 75.0537 34.3535 74.9637 34.0836C74.7163 33.8586 74.6938 33.5661 74.7613 33.2512C74.9412 32.7337 75.3236 32.3288 75.7509 32.0363C77.8426 30.574 78.9671 28.3918 80.0692 26.2096C82.1384 22.0927 83.9826 17.8857 85.7819 13.6338C86.3667 12.2615 87.1988 11.0242 87.6712 9.60686C88.1435 8.75197 88.6158 7.89709 89.1106 7.0647C87.3788 14.3537 84.9947 21.4628 82.3858 28.4818C81.1263 31.9014 78.8322 34.1061 75.2561 34.9384Z" fill="#AA2985"/>
<path d="M74.9403 33.2251C74.9403 33.5174 74.9627 33.7873 74.9627 34.0797C73.2759 35.0468 71.7015 33.9673 70.5095 33.315C63.3799 29.3116 57.0599 24.1387 50.9648 18.6959C58.0945 22.8342 65.2016 26.9726 72.3313 31.0884C73.0735 31.5157 73.8607 31.8981 74.6254 32.3029C75.0077 32.5278 74.9852 32.8877 74.9403 33.2251Z" fill="#C95098"/>
<path d="M48.917 162.474C51.5259 158.492 54.8321 155.095 57.8684 151.45C62.4341 145.916 68.8215 144.589 75.5014 144.004C75.5014 144.094 75.5238 144.206 75.5238 144.296C75.4114 144.589 75.3214 144.881 75.209 145.151C75.074 145.286 74.8941 145.421 74.7142 145.444C72.3301 145.624 70.261 146.771 68.1018 147.648C65.2679 148.796 62.9964 150.685 60.7248 152.62C57.4411 155.432 54.2923 158.402 50.9412 161.124C50.6488 161.529 50.154 161.664 49.7717 161.934C49.5018 162.114 49.2094 162.294 48.917 162.474Z" fill="#AFA719"/>
<path d="M43.7302 131.54C35.3411 131.9 26.9519 132.372 18.5628 132.215C18.4728 132.08 18.4728 131.923 18.5403 131.788C18.6527 131.675 18.7877 131.608 18.9226 131.54C19.7773 131.473 20.6095 131.248 21.4866 131.158C26.3222 130.708 31.1128 129.966 35.9033 129.224C39.1645 128.729 42.4257 128.751 45.6869 128.819C46.7215 128.841 47.5312 129.336 48.3184 129.876C48.6557 130.101 48.8807 130.438 48.7232 130.865C48.5883 131.248 48.2284 131.225 47.891 131.293C46.5191 131.585 45.1022 131.27 43.7302 131.54Z" fill="#847F23"/>
<path d="M146.979 105.238C146.709 105.238 146.44 105.215 146.17 105.215C145.765 105.058 145.337 104.9 144.933 104.72C146.35 100.11 150.375 98.468 154.266 96.9611C159.799 94.802 165.489 93.0702 171.135 91.2034C171.562 91.0685 172.079 91.1359 172.552 91.0909C172.124 91.3383 171.697 91.6082 171.27 91.8556C168.638 92.8902 166.187 94.2847 163.6 95.3867C160.609 96.6687 157.64 98.0632 154.694 99.4351C152.152 100.605 149.656 101.864 148.126 104.383C147.856 104.833 147.384 104.99 146.979 105.238Z" fill="#A51917"/>
<path d="M132.223 160.809C131.931 159.257 131.661 157.727 131.368 156.175C130.469 150.348 129.727 144.499 129.187 138.627C128.962 136.13 129.299 133.723 130.896 131.653C131.121 131.495 131.346 131.45 131.616 131.518C131.931 131.63 132.178 131.833 132.268 132.193C132.268 140.674 132.268 149.156 132.268 157.637C132.268 158.672 132.223 159.752 132.223 160.809Z" fill="#EC870C"/>
<path d="M48.0462 161.934C47.9787 161.934 47.8888 161.934 47.8213 161.957C47.8438 158.582 47.8438 155.185 47.8663 151.81C48.0237 148.413 47.8888 144.994 47.9337 141.597C47.9562 140.359 47.9337 139.122 48.2036 137.885C48.6535 135.86 48.6984 133.813 48.4285 131.743C48.6085 131.136 48.8334 130.573 49.6431 130.686C50.8576 132.261 50.8126 134.195 51.0375 135.995C51.4423 139.302 50.7901 142.564 50.3853 145.849C50.0029 148.976 49.4631 152.103 49.3507 155.252C49.1932 157.547 48.7659 159.774 48.0462 161.934Z" fill="#9D9720"/>
<path d="M47.8213 19.0331C48.3836 23.4875 48.9908 27.9419 49.5081 32.3963C49.8455 35.3434 50.0929 38.2905 50.3853 41.2601C50.6552 43.8922 50.2953 46.3894 48.6535 48.5716C47.8888 48.1442 48.1137 47.4243 48.1137 46.7719C48.0237 41.5076 47.9562 36.2433 47.8663 30.979C47.8438 26.9745 47.8213 23.015 47.8213 19.0331Z" fill="#74215D"/>
<path d="M147.63 74.5558C147.405 74.5558 147.203 74.5783 146.978 74.5783C146.888 74.0159 146.933 73.386 146.686 72.9135C145.539 70.7763 146.101 68.9766 147.518 67.2218C151.949 61.7775 156.334 56.2883 160.765 50.8215C161.035 50.484 161.395 50.2366 161.71 49.9666C161.035 51.114 160.36 52.2838 159.686 53.4311C157.099 57.4806 154.535 61.5526 151.836 65.5345C150.509 67.4918 149.52 69.629 148.957 71.9462C148.53 72.8235 148.08 73.7009 147.63 74.5558Z" fill="#C5161A"/>
<path d="M132.254 132.192C132.052 132.08 131.85 131.967 131.67 131.855C131.287 130.955 132.097 130.798 132.592 130.551C134.706 129.449 137 129.156 139.317 129.426C145.029 130.101 150.787 130.371 156.477 131.315C157.647 131.518 158.839 131.653 159.986 131.878C160.076 131.878 160.211 131.855 160.278 131.9C160.796 132.282 160.233 132.125 160.143 132.125C158.456 132.17 156.77 132.192 155.083 132.215C147.481 132.215 139.879 132.192 132.254 132.192Z" fill="#764213"/>
<path d="M105.346 32.6179C105.346 32.5054 105.346 32.4155 105.346 32.303C112.273 28.2996 119.223 24.2962 126.15 20.2928C126.825 19.9105 127.499 19.5506 128.152 19.1683C126.375 21.4174 123.856 22.7443 121.607 24.4312C118.48 26.7702 115.377 29.1768 111.958 31.156C109.844 32.348 107.707 32.7978 105.346 32.6179Z" fill="#C9151C"/>
<path d="M104.743 146.906C104.833 147.941 102.651 148.458 104.113 149.808C100.267 156.557 96.4212 163.306 92.5752 170.078C92.7551 167.648 94.262 165.713 95.1617 163.576C97.1858 158.672 99.3 153.79 102.134 149.268C102.786 148.188 103.641 147.423 104.743 146.906Z" fill="#9D5618"/>
<path d="M49.5027 130.708C49.2103 131 48.918 131.292 48.6481 131.585C48.4232 131.787 48.1983 131.765 47.9733 131.63C46.5564 131.607 45.162 131.585 43.745 131.562C45.0945 131.382 46.4664 131.202 47.8159 131C48.0633 130.955 48.2882 130.775 48.5131 130.663C48.3107 130.46 48.1533 130.213 47.9284 130.078C44.7796 128.481 41.4285 129.178 38.2122 129.471C32.522 129.965 26.8543 130.843 21.1641 131.585C21.1641 130.865 21.7713 130.933 22.1986 130.843C27.3041 129.628 32.3871 128.234 37.56 127.536C41.7433 126.974 45.9492 127.244 49.6602 129.763C49.7726 129.875 49.8626 130.033 49.9076 130.19C49.9301 130.46 49.7726 130.618 49.5027 130.708Z" fill="#9B951F"/>
<path d="M19.1415 129.269C18.939 129.359 18.7141 129.449 18.5117 129.538C19.0515 128.594 19.5913 127.626 20.1536 126.681C22.2002 124.949 23.2123 122.452 24.7192 120.315C26.9009 117.165 28.8576 113.858 30.9942 110.686C31.7589 109.539 32.2312 108.324 32.7035 107.064C33.0634 106.097 33.4233 105.017 34.7502 104.972C33.0859 106.952 33.3108 109.674 31.9164 111.811C28.1604 117.548 23.7296 122.789 19.7037 128.324C19.4788 128.594 19.3214 128.931 19.1415 129.269Z" fill="#BCB410"/>
<path d="M74.9429 146.051C74.853 146.253 74.7405 146.456 74.6506 146.636C74.2457 147.49 73.3461 147.58 72.6489 147.94C67.9932 150.369 63.7874 153.518 59.2892 156.195C58.1197 156.892 56.8377 157.477 55.8481 158.489C54.3412 159.366 52.8118 160.265 51.3049 161.143C51.2599 161.098 51.2149 161.053 51.1475 160.985C51.3274 160.108 52.182 159.883 52.7668 159.433C58.1871 155.115 63.585 150.752 69.6126 147.288C71.2769 146.366 72.9637 145.556 74.9429 146.051Z" fill="#857E23"/>
<path d="M146.979 105.238C150.128 99.7282 156.133 98.6261 161.171 96.0621C164.14 94.5327 167.289 93.3182 170.348 91.9913C170.618 91.8788 170.955 91.9013 171.27 91.8563C170.168 92.4636 169.066 93.0933 167.964 93.7006C162.048 96.8943 155.976 99.8406 150.331 103.529C150.061 103.709 149.768 103.889 149.588 104.204C148.959 104.609 148.351 104.991 147.722 105.396C147.497 105.328 147.227 105.283 146.979 105.238Z" fill="#851815"/>
<path d="M32.4526 74.5335C33.1274 74.7359 33.8246 74.9383 34.4993 75.1408C33.4197 75.0508 32.7 75.4107 31.9578 76.2878C30.3385 78.222 27.842 78.9193 25.7053 80.0438C21.6794 82.1804 17.4961 84.0247 13.3578 85.9814C13.0654 86.1164 12.7055 86.0939 12.3682 86.1389C19.0705 82.2704 25.7728 78.402 32.4526 74.5335Z" fill="#CCBF08"/>
<path d="M74.9418 33.2291C74.8294 32.9141 74.7394 32.5992 74.627 32.3067C75.0093 31.7218 75.3916 31.1144 75.774 30.5294C77.3709 28.7297 78.5854 26.66 79.6874 24.5677C81.5317 21.0582 83.4659 17.5937 85.3102 14.0617C85.4001 13.8817 85.5126 13.7467 85.4226 13.5442C86.1648 12.2394 86.9295 10.9346 87.6717 9.62976C86.9745 12.8918 85.2202 15.7489 83.9832 18.8085C82.6787 22.0481 80.9694 25.1302 79.44 28.3022C78.4504 30.3945 76.7411 31.8568 74.9418 33.2291Z" fill="#922475"/>
<path d="M55.8721 158.511C57.0416 156.78 58.9758 156.037 60.6402 154.98C65.2283 152.079 69.5691 148.705 74.6746 146.636C74.697 146.839 74.5396 146.951 74.5621 147.154C74.3597 147.378 74.3372 147.806 74.0898 147.941C68.0172 151.494 61.9446 155.003 55.8721 158.511Z" fill="#645A20"/>
<path d="M148.978 71.946C148.776 69.6288 149.945 67.7841 151.137 65.9843C153.926 61.7549 156.468 57.368 159.684 53.4535C156.76 58.5603 153.859 63.6896 150.935 68.7964C150.327 69.8538 149.653 70.8886 148.978 71.946Z" fill="#AD1B1A"/>
<path d="M85.4325 13.5441C84.9825 15.9062 83.6102 17.8635 82.5303 19.9332C80.7081 23.4877 78.9983 27.0872 76.4787 30.2143C76.2987 30.4393 76.2537 30.9792 75.7812 30.5293C78.9983 24.86 82.2154 19.1908 85.4325 13.5441Z" fill="#7B2563"/>
<path d="M149.614 104.204C151.234 102.112 153.528 100.92 155.822 99.7733C159.87 97.7491 163.739 95.3425 167.967 93.7007C161.849 97.1868 155.732 100.695 149.614 104.204Z" fill="#631D1A"/>
<path d="M47.9533 131.631C48.1782 131.608 48.4031 131.608 48.628 131.586C49.4377 133.993 49.1678 136.355 48.3356 138.695C47.7509 140.337 48.1557 142.002 48.0657 143.666C47.9533 146.389 47.9083 149.088 47.8408 151.81C47.8858 145.084 47.9308 138.357 47.9533 131.631Z" fill="#ACA519"/>
<path d="M105.346 147.784C106.358 146.951 107.303 147.761 108.023 148.166C111.127 149.966 114.165 151.855 116.909 154.195C113.535 152.26 110.16 150.303 106.786 148.368C106.313 148.144 105.818 147.986 105.346 147.784Z" fill="#B2641D"/>
<path d="M22.7646 99.7749C26.1167 101.125 29.4238 102.632 32.5733 104.454C33.3607 104.904 33.2257 105.287 32.4383 105.557C29.1988 103.622 25.9817 101.71 22.7646 99.7749Z" fill="#BEB714"/>
<path d="M49.7969 161.934C50.0893 161.664 50.3818 161.371 50.6743 161.102C50.8542 160.944 51.0342 160.922 51.2367 161.079L51.3267 161.169C50.8092 161.416 50.2918 161.664 49.7969 161.934Z" fill="#857E23"/>
<path d="M58.6279 87.9414C58.358 95.7254 60.3822 102.812 65.0378 109.134C66.3423 110.911 67.7817 112.531 69.4461 113.97C68.7263 114.578 68.3665 114.6 67.4893 113.79C66.0274 112.441 64.8354 110.888 63.5084 109.404C61.1019 106.704 59.1902 103.599 57.076 100.697C55.6591 98.74 54.9394 96.4003 54.3321 94.0381C54.3321 96.2653 54.1522 98.47 54.3771 100.697C54.4895 101.71 54.1972 102.362 53.1401 102.632C51.7456 102.992 51.3183 103.689 51.4757 105.174C51.7456 107.694 52.4429 110.101 53.7024 112.306C57.4359 118.875 62.5863 124.049 69.3111 127.536C71.8301 128.841 74.574 129.696 77.4753 129.741C78.2625 129.741 79.0497 129.853 79.3196 130.798C79.1172 132.485 78.8698 134.173 77.8802 135.635C77.6778 136.4 77.4529 137.142 77.2504 137.907C77.1605 138.042 77.048 138.132 76.9131 138.2C75.2038 138.605 73.5844 137.93 71.9201 137.75C66.9496 137.21 62.4514 135.59 59.1677 131.541C58.0656 130.191 56.8511 128.931 55.9065 127.514C53.9498 124.611 51.2733 122.519 48.6869 120.315C46.9101 118.785 44.9758 117.412 43.6264 115.41C42.7492 114.105 42.1195 112.733 41.7371 111.226C41.1749 109.021 41.2423 106.749 40.7925 104.522C40.5676 103.487 41.3773 102.564 41.1524 101.417C40.5001 98.1101 39.2856 95.0505 37.6438 92.1483C36.8566 90.776 36.0469 89.4037 35.2822 88.0089C34.0002 85.7142 34.8099 81.7997 35.6421 80.0675C36.2044 78.8976 36.9915 79.0551 37.4639 77.8403C37.8462 76.8504 38.4535 76.198 39.6455 76.4455C39.7354 76.423 39.8254 76.378 39.8929 76.3555C42.4119 77.0529 44.9309 77.7503 47.4274 78.4477C48.2595 78.2227 49.0467 78.4477 49.8339 78.6952C51.7906 79.3251 53.9048 79.4151 55.7265 80.4949C55.9739 80.7199 56.1764 81.0123 56.1989 81.3498C56.3563 83.8695 57.4134 86.1866 57.9981 88.6163C58.2006 89.4712 58.1781 90.3261 58.223 91.0685C58.358 90.1911 57.9082 89.1563 58.268 88.1439C58.3355 88.0089 58.448 87.9414 58.6279 87.9414Z" fill="#F6E919"/>
<path d="M77.8672 135.632C78.2495 133.991 78.6319 132.349 79.0142 130.707C79.1042 130.482 79.2166 130.302 79.4416 130.19C81.3758 129.92 83.3775 129.92 85.2442 129.155C86.0539 128.818 86.9536 128.615 87.5383 127.985C88.6629 126.793 90.0123 126.434 91.5867 126.479C92.7337 126.524 93.6784 126.141 94.0607 124.927C94.7804 124.837 95.4776 124.702 96.1974 124.634C96.7821 124.589 97.2769 124.859 97.4344 125.421C97.6368 126.074 97.0295 126.209 96.5797 126.321C95.1628 126.703 95.95 127.828 95.86 128.593C95.7475 129.447 96.4672 129.515 97.142 129.537C98.6714 129.605 100.201 129.695 101.73 129.83C102.81 129.942 103.979 130.212 104.294 131.337C104.564 132.326 103.754 133.158 102.99 133.721C99.7284 136.127 96.0849 137.634 92.014 137.904C87.0885 138.264 82.5228 136.622 77.8672 135.632Z" fill="#F49B1C"/>
<path d="M76.991 137.952C77.0809 137.93 77.1484 137.93 77.2384 137.907C80.5446 139.054 83.8507 140.247 87.1794 141.372C92.7347 143.284 97.6827 141.124 102.316 138.582C105.442 136.872 108.726 136.49 112.054 135.927C115.316 135.365 118.757 135.522 121.501 133.07C123.412 131.36 125.482 129.133 125.729 127.064C126.786 118.56 133.218 117.997 139.426 116.827C141.068 116.512 142.732 116.31 144.397 116.085C145.903 115.883 146.578 117.165 147.455 117.952C150.537 120.697 153.528 123.554 156.542 126.366C154.338 125.354 152.651 123.576 150.964 121.957C148.377 119.46 145.813 118.312 142.057 118.74C136.525 119.37 131.442 120.562 127.416 124.701C126.359 125.781 126.134 126.704 127.618 127.536C127.731 127.648 127.776 127.806 127.776 127.963C127.686 128.661 127.213 129.178 126.786 129.696C126.179 130.438 125.594 131.225 125.234 132.125C123.615 136.04 120.466 137.705 116.463 137.75C113.471 137.795 110.503 138.11 107.556 138.424C105.937 138.604 104.542 139.279 103.058 140.067C99.8418 141.754 96.6256 143.599 92.9371 144.116C90.4181 144.476 88.079 143.711 85.7625 142.811C82.8611 141.687 80.0498 140.292 77.0135 139.437C76.8785 139.369 76.7436 139.279 76.6311 139.167C76.3612 138.649 76.6311 138.289 76.991 137.952Z" fill="#EA860A"/>
<path d="M134.834 102.025C135.036 102.137 135.239 102.227 135.441 102.34C134.429 104.454 133.304 106.524 132.427 108.684C130.223 114.016 126.377 117.435 121.002 119.482C115.761 121.462 110.611 123.689 105.078 124.792C104.246 124.949 103.369 124.949 102.154 125.039C103.346 124.409 104.201 123.959 105.056 123.509C106.473 122.497 107.979 121.597 109.576 121.035C117.133 118.38 122.936 113.363 128.109 107.514C129.458 105.984 130.268 104.117 131.145 102.295C131.415 101.755 131.618 101.237 132.315 101.17C133.282 101.102 134.136 101.305 134.834 102.025Z" fill="#E98408"/>
<path d="M132.228 101.485C130.609 103.69 129.821 106.412 127.91 108.436C122.759 113.858 117.271 118.808 109.984 121.215C108.252 121.777 106.948 123.262 105.059 123.487C98.9862 124.454 93.2735 122.52 87.4033 121.642C88.4604 121.665 90.2822 121.732 91.3392 121.755C92.6662 121.687 93.1835 121.53 94.443 121.44C97.1644 121.237 99.8184 121.462 102.495 121.822C103.125 121.912 103.754 121.867 104.339 121.62C106.701 120.652 109.04 119.64 111.424 118.74C112.053 118.493 112.571 118.043 113.088 117.593C113.763 117.03 114.527 116.738 115.382 116.49C117.384 115.928 118.891 114.488 120.353 113.116C123.906 109.786 127.302 106.299 129.551 101.867C129.844 101.282 130.271 100.855 130.991 100.81C131.216 100.787 131.463 100.81 131.688 100.855C131.98 100.99 132.318 101.057 132.228 101.485Z" fill="#E87C0D"/>
<path d="M94.0645 124.927C94.4244 125.939 94.2444 126.816 93.0296 126.659C89.7675 126.231 87.6978 128.819 84.9757 129.696C83.0859 130.303 81.2412 130.483 79.3064 130.416C78.924 130.033 78.9465 129.538 79.0815 129.066C79.7789 126.389 80.5438 123.734 81.1962 121.057C81.2637 120.765 81.3762 120.81 81.5786 120.607C81.7811 120.675 81.9161 120.652 82.1186 120.72C81.5111 121.552 82.456 121.327 82.861 121.507C85.3581 122.609 87.9678 123.419 90.2625 124.949C91.4548 125.759 92.7821 124.792 94.0645 124.927Z" fill="#F7AE27"/>
<path d="M55.6008 80.6975C52.8793 79.9551 50.1579 79.1902 47.4365 78.4478C49.2133 78.0653 49.2808 76.783 49.2583 75.2532C49.1908 69.1115 52.4295 64.3422 55.8931 59.6853C57.0852 58.0655 58.4121 56.5132 59.4917 54.8259C62.0107 50.9115 65.7217 48.6618 69.9725 47.1545C74.0884 45.6922 78.2042 44.2749 82.2976 42.7451C88.7075 40.3604 94.87 41.8902 101.01 43.8699C101.37 43.9824 101.752 44.0949 102.112 44.2074C102.315 44.3648 102.36 44.5898 102.337 44.8148C102.27 45.1297 102.112 45.3997 101.865 45.6022C101.168 46.0296 100.448 45.7372 99.7731 45.5797C97.6589 45.0847 95.5448 44.6123 93.4081 44.2974C90.2594 43.8474 87.1556 44.0049 84.1194 44.9048C78.7215 46.5021 73.3237 48.1443 68.3532 50.9115C67.386 51.4514 66.5539 52.1938 65.5868 52.7562C64.3723 53.2511 63.5626 54.2185 62.7979 55.2309C62.5955 55.5008 62.393 55.7258 62.1681 55.9733C61.6733 56.4682 61.156 56.9182 60.7962 57.5256C60.7287 57.6381 60.6387 57.728 60.5713 57.8405C59.2443 59.3928 58.0973 61.0576 57.0402 62.7674C56.9727 62.8799 56.9052 62.9923 56.8153 63.1048C54.7911 66.3669 53.2617 69.8314 52.6095 73.6334C52.3621 75.0957 53.1492 76.5355 54.4762 77.1429C54.9935 77.3679 55.1509 76.963 55.3983 76.693C55.9156 76.1306 56.3205 76.2656 56.5904 76.8955C57.1976 78.2678 57.2876 79.5726 56.2305 80.7874C56.0056 80.8774 55.8032 80.8099 55.6008 80.6975Z" fill="#A72784"/>
<path d="M102.136 44.7697C102.136 44.5897 102.271 44.4548 102.248 44.2748C102.361 43.9823 102.338 43.6449 102.428 43.3524C104.587 44.3648 106.971 44.4098 109.243 44.9722C114.348 46.232 118.217 49.1566 121.545 53.2061C124.514 56.8506 127.978 60.0677 131.194 63.5097C133.893 66.3893 135.49 69.8763 135.58 73.7683C135.715 78.9651 137.469 83.8245 138.099 88.9313C138.571 92.7333 138.031 96.1753 135.94 99.3924C135.422 100.18 134.86 100.99 134.815 102.025C133.938 101.845 133.083 101.687 132.206 101.507C132.026 101.395 131.824 101.282 131.644 101.17C131.329 100.517 131.644 99.9323 131.936 99.3924C134.568 94.533 135.152 89.3812 134.41 83.9819C133.87 80.1125 133.286 76.2655 132.386 72.4635C131.644 69.2914 130.317 66.3443 128.158 63.8472C124.717 59.8427 121.118 55.9507 117.317 52.2612C113.966 49.0217 109.828 47.4694 105.442 46.3895C104.655 46.187 103.845 46.0521 103.058 45.8046C102.585 45.6246 102.023 45.4896 102.136 44.7697Z" fill="#CD131C"/>
<path d="M128.88 24.3652C128.431 28.3471 127.283 31.3842 126.429 34.5113C125.417 38.2233 125.642 42.0028 126.001 45.6923C126.474 50.2817 131.534 53.0038 136.01 53.3863C140.238 53.7462 144.534 54.1062 148.695 52.6664C149.145 52.5089 150.044 52.5539 150.157 52.8014C150.494 53.4763 149.64 53.6112 149.28 53.8362C146.918 55.3435 144.871 57.1208 142.937 59.213C140.508 61.8451 137.809 61.5977 134.211 59.033C133.468 58.5156 132.794 57.8632 131.984 57.4357C126.609 54.6461 124.382 48.9994 120.446 44.8824C115.858 40.0681 116.42 39.1007 121.368 34.8263C123.955 32.5766 125.417 29.3595 127.283 26.5249C127.688 26.0075 128.071 25.49 128.88 24.3652Z" fill="#E62440"/>
<path d="M76.0871 141.686C76.0871 141.866 76.0872 142.069 76.0647 142.249C75.8847 142.451 75.9972 142.766 75.8173 142.968C74.9851 143.531 73.883 142.766 73.0509 142.811C71.5215 142.878 70.0371 142.991 68.5527 143.508C65.5389 144.543 62.4801 144.79 59.3763 143.665C57.1272 142.856 56.2051 143.306 55.148 145.487C53.956 147.961 52.8315 150.435 51.7519 152.954C51.5495 153.449 51.482 154.124 50.7173 154.191C50.1775 153.696 50.4024 153.089 50.5824 152.594C51.9543 148.726 52.9889 144.723 55.238 141.236C55.5529 140.877 55.8003 140.494 56.1376 140.157C57.847 138.448 58.0944 138.425 60.231 139.572C62.6375 140.877 65.2015 141.124 67.9004 140.854C70.1945 140.607 72.4886 140.517 74.7602 140.989C75.2775 141.079 75.7498 141.259 76.0871 141.686Z" fill="#D2C801"/>
<path d="M50.6754 154.15C52.0248 151.248 53.3518 148.323 54.7013 145.421C55.6234 143.441 56.7704 141.957 59.3569 143.171C62.1458 144.476 65.1146 144.184 67.926 143.284C70.4899 142.452 73.2563 142.474 75.8428 142.991C75.8428 143.171 75.5729 144.364 75.5504 144.544C71.9069 143.374 68.7132 144.184 65.3395 144.926C63.0004 145.444 60.6389 145.399 58.3673 144.791C56.8379 144.386 55.9607 144.904 55.376 146.209C53.0594 151.383 50.7203 156.535 48.4038 161.709C48.3588 161.821 48.1789 161.889 48.0664 161.956C48.3588 159.752 48.6512 157.525 48.9436 155.32C49.7083 150.46 50.4729 145.601 51.0352 140.697C51.4401 137.255 51.0802 133.745 49.7982 130.416C49.7982 130.326 49.8207 130.236 49.8207 130.123C49.9557 130.033 50.0906 130.011 50.248 130.056C51.1252 130.618 51.8899 131.293 52.2048 132.35C52.2722 135.028 52.7445 137.66 52.5871 140.359C52.4072 143.734 51.5075 146.973 50.9228 150.28C50.6529 151.743 50.4055 153.205 50.0231 154.622C49.8657 154.78 50.2031 154.757 50.0231 154.667C50.0006 154.645 50.0231 154.622 50.0906 154.532C50.2255 154.33 50.428 154.195 50.6754 154.15Z" fill="#C3BB0F"/>
<path d="M131.321 131.586C129.005 134.87 129.634 138.537 130.017 142.159C130.512 146.816 130.916 151.496 131.366 156.152C130.174 152.058 129.769 147.829 129.05 143.644C129.005 143.307 129.027 142.969 128.915 142.654C128.465 141.327 129.14 138.695 126.103 141.102C123.719 143.014 120.481 142.047 117.602 141.462C113.756 140.674 109.82 139.392 105.996 140.607C103.477 141.417 101.228 143.217 98.9567 144.724C96.4602 146.366 94.0762 148.211 90.815 147.739C88.3859 147.379 86.3617 146.051 84.36 144.769C81.8635 143.149 79.2771 141.709 76.3982 140.809C76.2633 140.697 76.1958 140.584 76.1733 140.427C76.1508 140.18 76.2408 139.955 76.4207 139.797C76.5557 139.707 76.7131 139.662 76.8705 139.64C78.9172 139.887 80.739 140.764 82.5158 141.709C84.1801 142.587 85.8444 143.419 87.5763 144.162C90.9049 145.579 94.0762 145.219 97.1349 143.509C98.6643 142.677 100.171 141.822 101.768 141.147C102.128 140.989 102.488 140.809 102.735 140.517C103.815 139.235 105.322 138.875 106.874 138.74C110.045 138.447 113.216 138.47 116.387 138.785C117.872 138.942 119.379 138.987 120.863 138.92C123.607 138.807 125.046 137.39 125.429 134.645C125.743 132.306 126.868 130.416 128.6 128.841C128.757 128.819 128.915 128.864 129.027 128.976C129.41 129.359 129.792 129.741 130.174 130.146C130.826 130.416 131.524 130.663 131.321 131.586Z" fill="#DF7E0C"/>
<path d="M76.3818 140.56C76.4043 140.65 76.4268 140.74 76.4268 140.853C76.3144 141.145 76.1794 142 76.067 142.27C73.3006 141.55 70.5117 140.988 67.6778 141.347C65.1813 141.662 62.5948 141.55 60.4357 140.155C58.7264 139.053 57.4444 138.918 56.1624 140.538C55.8026 140.2 55.7801 139.773 55.915 139.346C56.1849 138.311 56.3648 137.299 56.3423 136.219C56.3423 135.725 56.4998 135.252 57.0171 135.05C57.5119 134.87 57.8267 135.207 58.1641 135.5C58.8164 136.062 59.4011 136.714 60.0309 137.299C62.145 139.256 64.799 139.683 67.4979 139.841C69.5221 139.953 71.5463 139.818 73.548 139.885C74.4926 140.2 75.5272 139.998 76.3818 140.56Z" fill="#DED402"/>
<path d="M73.8156 140.27C71.2292 140.225 68.6202 140.247 66.0338 140.112C62.7276 139.955 60.1186 138.357 58.0045 135.883C57.7796 135.613 57.3972 135.455 57.1048 135.253C56.9924 135.59 56.8349 135.928 56.7675 136.288C56.5426 137.705 56.3626 139.122 56.1827 140.54C55.9803 140.832 55.8003 141.124 55.5979 141.417C55.3055 141.102 55.328 140.742 55.3955 140.337C55.7554 138.132 55.2831 136.063 54.5184 134.015C53.7537 132.126 52.5616 130.506 51.1672 129.021C51.0997 128.729 51.2122 128.459 51.3696 128.211C51.9994 127.491 51.7295 126.929 51.0772 126.389C48.7157 124.432 46.0168 123.104 43.1829 122.047C41.9909 121.597 40.9563 121.867 40.1466 122.992C39.7643 123.532 39.3144 124.274 38.4148 123.712C38.0774 120.652 38.0774 120.652 34.9962 121.035C34.7038 121.08 34.4339 121.102 34.209 120.855C37.2453 119.1 37.1778 116.423 36.4806 113.476C36.1657 112.193 37.0878 111.091 37.3127 109.876C37.5601 108.526 37.8975 107.177 37.4702 105.759C37.3127 105.264 36.9979 104.364 37.9875 104.072C38.8421 105.917 38.7971 107.874 38.5722 109.831C38.4823 110.551 38.2799 111.248 38.1899 111.968C37.8075 115.275 39.067 117.638 42.0134 119.212C44.7573 120.697 47.5462 122.115 50.1551 123.847C51.6395 124.837 52.6966 126.119 53.7537 127.626C55.6879 130.371 57.1498 133.453 59.3989 135.973C61.1532 137.907 63.2899 139.01 65.9213 139.28C68.0804 139.505 70.2396 139.527 72.3987 139.572C72.871 139.595 73.6357 139.347 73.8156 140.27Z" fill="#E2D806"/>
<path d="M73.8165 140.269C71.4099 140.089 68.9809 139.729 66.5744 139.729C61.7838 139.752 58.68 136.985 56.8133 133.205C53.6645 126.839 48.694 122.812 42.4415 119.91C38.1907 117.93 36.9987 115.455 37.9658 110.821C38.4381 108.549 37.9883 106.344 37.9433 104.094C38.0333 104.004 38.1457 103.892 38.2357 103.802C38.4381 103.644 38.6406 103.622 38.8655 103.757C39.6751 105.916 39.6302 108.189 39.4727 110.438C39.2028 113.993 40.4848 116.715 43.4761 118.65C44.9605 119.617 46.3775 120.719 47.9518 121.529C52.0677 123.644 54.6092 127.244 56.9932 130.978C57.8704 132.373 58.7925 133.723 59.8721 134.938C61.0641 136.31 62.5035 137.412 64.3703 137.885C67.1816 138.627 70.083 138.672 72.9393 138.964C74.1538 139.077 76.3355 136.692 77.2801 137.705C77.2576 137.907 76.4479 140.629 76.4254 140.832C75.5483 140.989 74.6262 140.607 73.8165 140.269Z" fill="#E4DA06"/>
<path d="M38.8224 103.797C38.62 103.797 38.44 103.797 38.2376 103.797C38.5075 101.256 37.0456 99.3216 35.7186 97.4548C33.4021 94.2386 30.3883 91.6971 27.2845 89.2906C25.3503 87.7837 23.0112 88.4359 20.8521 88.5934C16.3314 88.9082 11.8107 89.4705 7.3125 89.9203C9.60658 88.4134 12.3505 88.8408 14.8695 88.2335C17.8383 87.5138 20.8746 87.1315 23.8659 86.5467C25.1479 86.2993 26.3399 86.5467 27.1945 87.4463C30.8831 91.2473 35.2463 94.441 37.6978 99.3216C38.4176 100.761 38.9798 102.2 39.1148 103.797C39.0023 103.91 38.9124 103.91 38.8224 103.797Z" fill="#E2D806"/>
<path d="M34.1894 120.877C35.0668 120.675 35.9442 120.27 36.7991 120.337C39.0038 120.562 39.0713 122.047 38.5313 123.757C38.1714 124.882 36.979 124.949 36.1917 125.534C33.2445 126.771 30.23 127.851 27.2604 128.999C26.8104 129.179 26.3605 129.381 25.888 129.111C25.5731 128.166 26.428 128.099 26.9229 127.919C29.6675 126.861 32.2997 125.534 34.9543 124.319C35.6517 124.004 36.8216 123.689 36.3266 122.699C35.8992 121.822 34.9318 122.474 34.2794 122.789C30.8599 124.364 27.7103 126.434 24.4482 128.279C23.8858 128.594 23.3684 129.179 22.626 128.706C23.0084 128.324 23.4134 127.941 23.7958 127.559C27.2379 125.309 30.7024 123.104 34.1894 120.877Z" fill="#E6DC1F"/>
<path d="M35.928 104.387C35.7255 104.387 35.5456 104.387 35.3431 104.387C33.7683 102.497 32.1935 100.607 30.2138 99.1002C29.6964 98.7177 29.1564 98.2453 29.2689 97.4579C31.8561 97.5029 36.1305 101.327 36.4455 103.87C36.4904 104.229 36.2205 104.342 35.928 104.387Z" fill="#D4CA18"/>
<path d="M38.8241 103.802C38.914 103.802 39.0265 103.802 39.1164 103.802C40.8258 102.52 39.3863 101.215 38.959 100.135C37.0473 95.3206 33.4487 91.6761 30.0301 87.9191C27.1962 84.8145 27.8035 81.26 31.5595 79.3703C33.1114 78.6054 34.7307 77.9529 35.4954 76.1757C35.6079 75.9057 36.2151 75.8382 36.5975 75.6807C36.6424 75.5683 36.7099 75.5458 36.8224 75.5908C36.9123 75.6582 37.0023 75.7032 37.1148 75.7707C37.4746 76.2432 37.2272 76.7156 37.0023 77.1206C36.1027 78.7178 35.203 80.2701 33.6062 81.35C31.5145 82.7673 31.2671 84.0046 32.3467 86.3218C33.0439 87.8291 34.1234 89.0664 35.0906 90.3713C37.6096 93.7008 39.7912 97.2103 40.8932 101.26C41.1182 102.07 41.2081 102.857 40.7133 103.622C40.5109 103.937 40.3984 104.364 40.4659 104.747C40.9607 107.446 40.5559 110.236 41.3431 112.913C41.8828 114.69 42.8949 116.13 44.2669 117.3C45.8413 118.65 47.4156 120.022 49.1924 121.08C52.9709 123.374 55.355 126.974 57.9414 130.393C59.066 131.901 60.168 133.43 61.6075 134.668C64.3738 137.052 67.77 137.457 71.1886 137.795C72.5831 137.93 73.955 138.087 75.327 138.402C75.8443 138.515 76.3615 138.672 76.6989 139.122L76.7664 139.1C76.9688 139.415 76.9913 139.707 76.6764 139.955C76.609 139.955 76.7439 139.932 76.6764 139.955C73.6626 139.1 70.2665 139.212 67.1852 138.92C62.8894 138.515 59.7182 136.4 57.739 132.801C54.3653 126.704 49.3948 122.452 43.4347 119.077C40.0836 117.188 38.7341 114.173 39.0715 110.259C39.2289 108.144 38.914 105.962 38.8241 103.802Z" fill="#EDE20D"/>
<path d="M36.8007 75.6131C36.7332 75.6356 36.6433 75.6806 36.5758 75.7031C36.081 75.5231 35.5637 75.3207 35.0689 75.1407C34.8215 72.2611 34.1693 69.494 32.5949 66.9968C29.896 62.7224 26.3424 59.1229 23.1262 55.2759C21.5968 53.4311 20.0899 51.5639 18.583 49.7191C20.7646 50.889 22.3615 52.7787 24.1383 54.4435C28.0292 58.088 32.6174 61.0801 35.1814 66.0519C36.7557 69.1115 37.408 72.2161 36.8007 75.6131Z" fill="#902473"/>
<path d="M51.2293 161.075C51.0493 161.075 50.8469 161.098 50.667 161.098C56.0199 156.532 60.698 151.067 67.0629 147.76C69.5819 146.456 72.1684 144.927 75.2272 145.174C75.1372 145.466 75.0472 145.759 74.9573 146.051C65.3086 148.323 58.9212 155.745 51.2293 161.075Z" fill="#9C951F"/>
<path d="M76.6555 139.122C73.5743 138.65 70.5155 138.155 67.4342 137.727C63.2509 137.165 60.3946 134.69 58.0555 131.406C56.1887 128.796 54.4344 126.051 52.0279 123.914C50.1387 122.227 48.1145 120.652 45.9778 119.302C41.5696 116.49 39.7028 112.351 40.3326 107.424C41.3672 99.4825 37.1613 93.8582 32.8431 88.0765C30.6165 85.0844 30.2341 82.8347 33.8327 80.6075C35.587 79.5052 36.2842 77.6154 37.0714 75.8157C37.926 76.0406 38.7807 76.2656 39.6354 76.4906C39.208 76.6706 38.6458 76.738 38.3759 77.053C34.17 81.6649 33.9451 85.6918 37.4087 91.0461C39.5679 94.3532 41.4796 97.9752 41.4796 101.822C41.4796 105.039 41.7045 108.121 42.1993 111.248C42.8516 115.23 45.7979 117.593 48.6542 119.752C52.5902 122.722 55.7164 126.366 58.5953 130.236C61.9464 134.735 66.5121 136.715 71.8425 137.367C73.5518 137.57 75.2611 137.75 76.9704 137.952C76.8805 138.335 76.768 138.717 76.6555 139.122Z" fill="#EFE410"/>
<path d="M129.054 128.974C128.964 128.974 128.851 128.974 128.761 128.974C128.177 128.794 127.794 128.412 127.614 127.805C127.614 127.715 127.614 127.625 127.614 127.512C130.268 123.981 134.047 122.834 138.208 121.934C145.809 120.27 150.847 125.241 156.628 128.367C158.517 129.379 160.249 130.683 162.048 131.853C156.808 130.009 151.545 128.277 146.349 126.298C141.514 124.476 132.112 124.588 129.054 128.974Z" fill="#D97A0F"/>
<path d="M22.6077 128.682C26.2063 126.68 29.7824 124.633 33.4259 122.744C34.4605 122.204 36.0349 120.697 36.867 122.519C37.6092 124.183 35.585 124.386 34.5055 124.903C31.6041 126.275 28.7028 127.625 25.8014 128.974C25.3291 129.896 24.3395 129.919 23.5299 130.278C22.6977 130.638 21.7981 130.773 20.9884 131.178C20.2462 131.65 19.3465 131.538 18.5818 131.875C18.3794 131.898 18.1995 131.898 17.9971 131.92C19.2566 130.436 21.0558 129.739 22.6077 128.682Z" fill="#F0E63F"/>
<path d="M131.32 131.584C130.938 131.09 130.578 130.617 130.195 130.123C133.839 127.041 138.18 127.491 142.34 128.166C148.278 129.133 154.126 130.595 159.996 131.854C153.271 131.202 146.569 130.527 139.844 129.92C136.943 129.673 134.019 129.605 131.68 131.832C131.545 131.764 131.432 131.674 131.32 131.584Z" fill="#A65C18"/>
<path d="M18.5596 131.876C19.3243 131.584 20.089 131.292 20.8537 130.977C25.6892 129.447 30.4798 127.716 35.3603 126.299C39.3413 125.129 43.3671 125.377 47.3031 126.546C48.675 126.951 49.7996 127.94 50.7892 128.998C50.9241 129.582 50.6542 129.942 50.1144 130.1C50.0245 130.1 49.9345 130.1 49.8221 130.1C42.58 125.939 35.2929 128.3 28.0058 129.897C25.7342 130.392 23.4626 130.999 21.191 131.539C20.3139 131.674 19.4367 131.764 18.5596 131.876Z" fill="#ACA519"/>
<path d="M49.7717 130.416C52.0208 133.543 51.6159 137.277 51.3685 140.674C51.0087 145.579 49.7717 150.438 48.917 155.32C49.5018 149.718 50.109 144.094 50.6488 138.492C50.8962 135.815 50.1765 133.273 49.4793 130.731C49.5917 130.618 49.6817 130.506 49.7717 130.416Z" fill="#ACA519"/>
<path d="M81.5753 120.629C80.7881 123.981 80.9231 123.442 80.1359 126.794C80.0459 126.884 79.1013 130.618 79.0113 130.708C78.7864 130.258 78.4041 130.123 77.9318 130.123C71.7917 130.101 66.7987 127.244 62.413 123.397C57.3975 119.01 52.9218 114.06 51.4149 107.221C51.145 105.984 50.5827 104.702 51.235 103.419C51.4599 102.969 51.9097 102.204 52.1571 102.249C54.8785 102.564 53.8214 100.697 53.8214 99.4822C53.8439 97.5025 53.8214 95.5228 53.8439 93.543C53.8439 93.2281 53.7989 92.7781 54.2488 92.7781C54.3837 92.7781 54.6086 93.2056 54.6761 93.453C56.138 100.45 60.9736 105.376 65.2469 110.641C66.2589 111.878 67.0911 113.385 68.688 114.06C68.8904 114.15 69.2053 113.97 69.4527 113.925C73.3886 117.277 77.0771 119.347 81.5753 120.629Z" fill="#F6E91F"/>
<path d="M62.0766 75.7706C61.2669 77.4803 60.6596 78.8527 60.0074 80.8099C59.1527 80.6074 59.3327 79.775 59.4226 79.2801C59.85 76.6254 59.8725 73.8808 60.4797 71.2712C60.997 69.0665 61.7617 66.8393 63.426 65.1295C65.2028 63.3072 67.0246 61.53 68.9813 60.1127C68.0592 60.7201 67.1595 61.5975 66.1924 62.3849C65.9 62.6098 65.5177 62.9473 65.1803 62.6548C64.753 62.2724 65.1129 61.8224 65.3828 61.53C66.5298 60.2251 67.6993 58.9428 69.0488 57.863C75.4812 52.7787 82.7008 49.899 90.9775 49.854C94.2162 49.8315 97.3875 50.079 100.514 50.9339C100.671 52.2612 100.289 53.4311 99.5241 54.4884C98.9168 54.8034 98.3096 54.5559 97.7023 54.4434C94.0363 53.836 90.3703 53.2961 86.5243 53.926C88.8184 53.7685 90.91 54.1285 93.0467 54.3084C93.4965 54.5109 93.9913 54.7134 93.8564 55.2983C93.7664 55.7707 93.2941 55.9507 92.8668 56.0407C90.0329 56.6031 87.379 57.8855 84.7925 59.1453C83.443 59.4603 82.0936 59.7527 80.7441 60.0452C80.2943 59.3028 80.9015 58.6729 81.3289 58.2679C82.0936 57.548 83.0157 57.0306 83.9153 56.4682C84.3427 56.1982 84.8825 56.0407 85.1973 55.3208C82.2285 55.4108 79.4396 55.8157 76.8757 57.1881C72.5349 58.8303 69.3187 62.0024 66.0575 65.107C65.7201 65.4444 65.3603 65.7819 65.1803 66.2318C64.0558 69.4039 63.1786 72.621 62.0766 75.7706Z" fill="#6D1F4B"/>
<path d="M100.496 50.8665C99.3715 51.4514 98.3595 50.754 97.3024 50.619C84.7524 49.0217 74.0917 52.6438 65.5001 62.0475C65.4101 62.1375 65.3876 62.295 65.2077 62.6999C67.0745 61.3276 68.7163 60.1128 70.3357 58.8979C70.4031 58.9879 70.4481 59.0779 70.5156 59.1454C68.9637 60.5402 67.5018 62.025 65.8824 63.3523C61.6766 66.7494 60.5971 71.4737 60.3722 76.468C60.3047 77.8629 59.405 79.1902 60.0123 80.6525C59.9223 81.0349 59.8099 81.4174 59.7199 81.7998C59.3151 81.9798 59.0002 81.8223 58.7303 81.5299C58.168 79.8876 58.6179 78.2003 58.4379 76.5355C58.0781 73.4085 59.8099 70.8888 60.5296 68.4591C59.9673 68.9541 59.9223 70.3714 58.6853 70.9113C57.4483 70.2139 57.8757 69.179 58.2805 68.2792C59.6524 65.2421 61.4517 62.4749 63.7458 60.0228C65.9274 57.7056 68.244 55.5684 70.7855 53.6561C76.6781 49.7866 83.178 47.7394 90.1952 47.2445C92.7592 47.0645 95.2782 47.492 97.8197 47.8519C98.8767 48.0094 99.9113 48.2119 100.946 48.3693C101.193 48.4593 101.283 48.6618 101.328 48.9093C101.283 49.4942 101.193 50.0791 100.856 50.5965C100.743 50.7315 100.631 50.8215 100.496 50.8665Z" fill="#83225F"/>
<path d="M98.3127 59.7977L98.1778 59.7527L97.9754 59.7077C97.5705 59.1453 98.0203 58.4029 98.1328 57.8405C98.3802 57.1656 98.5601 56.4682 98.7176 55.7707C98.8975 55.2983 98.92 54.7359 99.4822 54.5109C99.6172 54.4659 99.7746 54.4884 99.9096 54.5334C100.854 55.5683 102.181 55.9282 103.396 56.4682C115.473 61.8449 122.783 71.1137 125.729 83.9145C125.954 84.8818 125.819 86.0742 126.966 86.6591C127.506 89.6737 127.349 92.6658 126.786 95.6579C126.696 96.1753 126.629 96.6927 126.539 97.2102C126.292 97.9976 126.359 98.8974 125.684 99.5274C125.459 99.6623 125.212 99.6623 124.987 99.5499C124.875 99.4374 124.807 99.3024 124.762 99.1449C125.909 94.0831 125.482 89.0438 124.335 84.0494C124.29 83.847 124.312 83.577 124.042 83.397C123.683 85.6467 123.683 87.9189 122.963 90.0561C122.738 90.6861 122.715 91.7209 121.546 91.3835C121.636 86.0742 121.254 85.8717 120.984 83.892C120.826 82.2947 120.871 80.6749 120.534 79.0776C119.252 73.1159 116.058 68.3691 111.447 64.4771C110.143 63.3972 108.906 62.1824 107.242 61.5975C106.387 61.2825 105.487 61.0125 104.768 60.3826C102.901 59.4827 101.034 58.5829 98.8975 59.6177C98.6726 59.7302 98.4926 59.8652 98.3127 59.7977Z" fill="#BA1818"/>
<path d="M131.101 101.17C129.482 101.35 129.527 102.97 128.897 103.937C125.613 108.886 121.767 113.341 116.684 116.355C112.658 118.74 108.25 120.607 103.819 122.115C101.953 122.745 99.591 121.89 97.4543 121.732C95.1603 121.575 92.2364 122.227 89.9648 121.687C92.5738 121.62 93.7433 121.44 95.79 121.215C96.7346 121.305 97.6343 120.855 98.5339 120.63C98.6689 120.585 98.8263 120.562 98.9612 120.54C100.018 120.36 101.075 120.382 102.132 120.472C106.226 120.742 109.487 118.988 112.433 116.423C113.041 115.793 113.67 115.208 114.458 114.781C116.212 114.151 117.381 112.823 118.528 111.474C119.518 110.304 120.463 109.089 121.947 108.481C122.352 108.324 122.599 107.941 122.869 107.604C124.444 105.602 125.905 103.532 126.985 101.215C127.165 100.832 127.277 100.405 127.682 100.135C128.11 99.9101 128.559 99.9326 129.009 100.045C129.706 100.428 130.764 100.158 131.101 101.17Z" fill="#D47213"/>
<path d="M62.1422 75.6358C61.6924 74.3534 62.5246 73.5435 62.727 72.3962C64.1439 64.3423 69.8342 60.1128 76.6939 56.9408C77.706 56.5808 78.6956 56.0634 79.8202 56.0409C80.3375 56.0409 80.8098 56.0859 81.0347 56.5808C81.2596 57.0533 80.9447 57.4132 80.6523 57.7282C79.5728 58.9205 78.4482 60.2028 77.3462 61.3952C76.1766 61.9801 74.9621 62.6325 73.8151 63.2399C73.1403 62.4075 74.1749 61.5077 74.0175 60.6078C72.9604 60.8327 72.2182 61.5077 71.4535 62.1151C68.5297 64.4098 66.483 67.4244 64.8412 70.7089C64.7737 70.8439 64.8412 71.2039 64.8861 71.3388C63.7391 72.7786 63.1094 74.0835 62.1422 75.6358Z" fill="#4D1C2F"/>
<path d="M118.304 104.274C119.766 101.394 120.081 99.9097 120.778 97.5025C121.385 97.8625 121.835 98.1324 122.555 98.3124C123.005 98.4249 123.5 98.5599 123.635 99.0998C123.275 103.307 120.688 106.299 118.169 109.336C115.155 112.98 111.512 115.838 107.261 117.885C106.564 118.222 105.867 118.56 105.124 118.74C104.652 118.852 104.247 119.257 104.067 118.47C105.034 117.907 106.182 117.322 107.171 116.76C108.656 116.557 109.173 115.253 110.275 114.465C112.524 112.8 114.503 110.843 116.392 108.796C117.584 107.491 118.597 106.164 118.304 104.274Z" fill="#8F4816"/>
<path d="M121.502 91.3611C123.279 90.0788 122.806 88.0091 123.211 86.2768C123.526 84.9495 123.481 83.5322 123.909 82.1149C125.754 87.6941 126.631 93.3184 124.989 99.1676C124.809 99.3251 124.629 99.3476 124.404 99.2576C123.909 98.6726 124.224 98.0652 124.359 97.4803C124.561 96.5804 124.629 95.703 124.426 94.7807C124.224 93.8133 123.864 93.8583 123.189 94.4432C122.491 95.0281 122.244 96.063 121.097 95.9955C121.434 93.3859 121.524 92.4635 121.502 91.3611Z" fill="#A01919"/>
<path d="M111.405 64.1621C113.991 65.7594 115.835 68.0991 117.387 70.6187C119.906 74.6682 121.818 78.9201 120.918 83.892C119.434 77.5703 116.533 72.0361 111.922 67.4242C112.417 66.5693 112.462 65.7819 111.63 65.0845C111.427 64.8595 111.225 64.5446 111.405 64.1621Z" fill="#DA0D1D"/>
<path d="M124.428 99.1675C124.631 99.1675 124.811 99.1899 125.013 99.1899C125.013 99.2799 125.035 99.3699 125.035 99.4599C124.361 101.89 123.416 104.184 121.887 106.209C120.627 107.896 119.705 109.831 118.176 111.361C114.847 114.69 110.911 117.21 106.705 119.257C104.839 120.157 102.679 120 100.633 120.36C100.295 120.427 100.16 120.517 99.958 120.202C101.33 119.64 102.702 119.055 104.096 118.492C106.098 118.965 107.38 117.457 108.864 116.625C114.667 113.386 118.94 108.616 122.314 102.947C123.034 101.732 122.427 100.18 123.574 99.1899C123.843 98.92 124.136 98.9425 124.428 99.1675Z" fill="#A65418"/>
<path d="M99.9516 120.202C106.182 120.292 110.86 116.963 115.448 113.228C119.744 109.719 122.645 105.219 124.467 99.9998C124.534 99.7748 124.849 99.6399 125.029 99.4599C125.209 99.4599 125.411 99.4599 125.591 99.4599C126.086 99.3474 126.558 99.3474 127.008 99.6399C127.098 99.7524 127.166 99.8648 127.188 99.9998C126.963 101.575 125.996 102.812 125.209 104.139C125.119 104.297 124.962 104.522 124.804 104.544C123.14 104.657 122.78 106.141 122.105 107.221C120.126 110.371 117.472 112.846 114.593 115.118C114.008 115.59 113.446 116.085 112.861 116.558C110.837 118.132 108.566 119.257 106.204 120.225C105.484 120.517 104.742 120.63 103.955 120.63C102.201 120.607 100.424 120.54 98.6696 120.899C97.9724 121.102 97.4101 121.349 96.7129 121.057C97.7925 120.765 98.8945 120.495 99.9516 120.202Z" fill="#C16517"/>
<path d="M98.9886 55.7936C98.8086 56.4685 98.6286 57.1659 98.4261 57.8408C96.7389 57.6158 95.0516 57.7733 93.4093 58.2007C91.3171 58.7407 89.1799 58.6732 87.1102 58.8531C86.3453 58.9431 85.5579 59.0556 84.793 59.1681C86.9977 57.1659 89.7648 56.356 92.5319 55.7261C92.8919 55.6361 94.2642 55.7711 93.1843 54.6462C95.2766 54.2188 97.2338 54.4887 98.9886 55.7936Z" fill="#86235F"/>
<path d="M64.8701 71.3162C64.8926 69.2465 66.0625 67.4017 67.1648 65.9394C68.7621 63.8247 70.6743 61.8449 73.059 60.5176C73.5315 60.2477 74.4088 59.9327 74.6113 60.1352C75.1062 60.6076 74.3413 61.1025 74.2064 61.6425C74.0939 62.0924 73.9589 62.7898 73.8239 63.2398C69.9994 65.5794 67.4123 68.0991 64.8701 71.3162Z" fill="#301A1B"/>
<path d="M77.3448 61.3952C77.7273 59.8204 79.0996 58.943 80.022 57.7957C80.3144 57.4357 80.8544 56.9408 80.7419 56.6933C80.5169 56.1084 79.8195 56.3109 79.3246 56.3783C78.4247 56.4908 77.5473 56.7383 76.6699 56.9408C79.3021 55.366 82.2267 55.0285 85.1963 54.9385C85.4662 54.9385 85.7362 55.186 86.0287 55.321C85.8262 55.5685 85.6462 55.8384 85.3988 56.0409C83.8465 57.3007 81.5968 57.9306 80.7419 60.0678C79.5945 60.5178 78.5147 60.9452 77.3448 61.3952Z" fill="#5D1E3B"/>
<path d="M111.401 64.1623C111.694 64.5222 111.986 64.8822 112.301 65.2421C113.111 66.1195 113.403 66.9069 111.941 67.4243C108.004 63.7348 103.662 61.2827 98.1504 59.7754C100.558 57.9756 102.852 59.078 105.034 60.1578C104.225 60.7652 103.527 60.0003 102.605 60.0453C103.1 60.3603 103.55 60.5403 103.955 60.7427C105.574 61.5976 107.194 62.4525 108.656 63.5999C109.241 64.0048 109.781 64.4772 110.591 64.8147C109.961 63.8473 109.151 63.3074 108.409 62.6775C107.959 62.3175 107.217 62.1151 107.329 61.3052C108.994 61.8226 110.276 62.88 111.401 64.1623Z" fill="#DC172D"/>
<path d="M124.424 99.1674C124.131 99.1674 123.861 99.1674 123.569 99.1674C122.782 98.2451 121.004 99.3924 120.712 97.6826C120.824 97.2102 121.004 96.2428 121.117 95.7479C121.612 95.2979 121.927 95.0505 122.467 94.6455C123.097 94.1731 123.479 92.9808 124.289 93.2957C125.076 93.6107 124.964 94.8255 124.964 95.6129C124.941 96.8277 124.604 97.9976 124.424 99.1674Z" fill="#911A14"/>
<path d="M118.305 104.274C119.655 106.209 118.147 107.649 117.158 108.819C114.593 111.856 111.556 114.443 108.271 116.67C107.844 116.962 107.664 117.097 107.191 116.76C112.028 113.565 115.583 109.403 118.305 104.274Z" fill="#6D3917"/>
<path d="M87.7158 58.7178C91.0454 58.2453 93.7675 57.7054 97.0971 57.233C97.637 57.1655 98.1544 57.2555 98.4469 57.8404C98.3344 58.4028 98.0869 59.1452 97.9744 59.7076C94.3524 58.8528 91.4053 58.5378 87.7158 58.7178Z" fill="#9D2775"/>
<path d="M58.7764 81.4398C59.0689 81.5523 59.3389 81.6873 59.6313 81.7998C59.2939 83.847 58.9789 85.8942 58.6415 87.9415L58.5065 87.919C57.7416 87.1091 57.7866 86.0742 57.7416 85.0843C57.6966 83.847 57.6966 82.6097 57.5166 81.3723C57.989 80.7649 58.3715 81.0349 58.7764 81.4398Z" fill="#C6AE0E"/>
<path d="M96.7368 121.035C97.4342 121.035 97.9967 120.855 98.6941 120.877C97.7492 121.372 96.7818 121.529 95.8145 121.237C96.0619 121.192 96.4669 121.08 96.7368 121.035Z" fill="#C76715"/>
<path d="M57.5941 81.2373C58.8539 83.3296 57.7515 85.7367 58.4714 87.9189C58.4714 89.3362 58.4714 90.7536 58.4714 92.1709C58.4039 92.1709 58.314 92.1934 58.2465 92.1934C57.3466 88.3689 56.4692 84.5444 55.5693 80.6974C55.7493 80.6974 55.9293 80.6974 56.1318 80.6974C56.4467 80.6299 56.7392 80.6299 57.0541 80.7649C57.3016 80.8549 57.5041 80.9899 57.5941 81.2373Z" fill="#E6CF07"/>
<path d="M127.616 127.806C127.998 128.188 128.381 128.571 128.763 128.976C127.324 131 125.974 132.957 125.727 135.655C125.479 138.219 123.365 139.254 120.936 139.389C117.023 139.591 113.087 139.142 109.196 138.984C105.013 138.804 102.089 141.211 99.0974 143.1C93.2048 146.833 87.9868 145.507 82.6565 142.313C80.7897 141.188 78.788 140.558 76.6514 140.131C76.6739 139.839 76.8538 139.411 76.8763 139.119C80.07 139.546 82.7464 141.053 85.6253 142.313C89.8311 144.157 93.8345 144.022 97.9728 142.088C101.706 140.356 105.08 137.882 109.533 137.635C112.817 137.432 116.123 137.635 119.407 136.87C121.543 136.375 123.005 135.161 123.972 133.496C125.097 131.54 126.267 129.628 127.616 127.806Z" fill="#E98509"/>
<path d="M131.109 101.17C130.412 100.9 129.715 100.63 129.017 100.36C128.95 99.7298 129.265 99.2349 129.535 98.74C132.144 93.7906 132.773 88.4813 132.346 83.0146C132.144 80.3149 131.761 77.6378 131.154 75.0056C130.097 70.3713 128.253 66.1418 125.014 62.5873C122.967 60.3376 120.966 58.0654 118.874 55.8832C114.893 51.6988 110.102 49.0441 104.525 47.6943C103.513 47.4469 102.433 47.2894 101.556 46.637C101.173 46.1195 101.668 45.7821 101.826 45.3771C101.938 45.1747 102.028 44.9722 102.141 44.7697C103.468 46.007 105.244 45.9171 106.819 46.2545C114.376 47.8743 119.256 53.2061 124.069 58.5829C126.273 61.0575 128.68 63.3297 130.389 66.2318C132.728 70.1688 133.358 74.6007 134.123 78.9876C135.09 84.5669 136.012 90.1911 133.988 95.7479C133.313 97.5926 132.458 99.3699 131.671 101.17C131.491 101.17 131.311 101.17 131.109 101.17Z" fill="#C3161A"/>
<path d="M101.822 45.3773C101.754 45.7597 101.665 46.1422 101.597 46.5246C101.53 46.7721 101.395 46.9521 101.17 47.0421C100.607 47.267 100.023 47.1771 99.4604 46.9971C91.1387 44.4999 83.2669 46.2097 75.5299 49.4492C71.684 51.069 68.0629 53.0488 65.2066 56.1758C61.4506 59.6854 58.7966 63.9373 56.6375 68.5492C55.6479 70.6414 55.333 72.6661 56.6825 74.7133C56.3226 76.2656 55.9178 76.4681 54.7033 75.6132C52.904 74.3534 52.5891 73.566 53.1739 71.4513C54.0061 68.3917 55.2431 65.4896 56.7724 62.7225C58.1444 61.0802 59.134 59.1454 60.5284 57.5257C60.9333 56.8732 61.5855 56.4458 61.9679 55.7934C62.1703 55.5909 62.3502 55.4109 62.5526 55.2085C63.3173 54.2411 64.172 53.3637 65.1616 52.5988C73.1234 47.2895 81.7824 43.9375 91.4311 43.6675C94.3999 43.6 97.2788 44.4999 100.158 45.2198C100.675 45.3548 101.26 45.3323 101.822 45.3773Z" fill="#9F257E"/>
<path d="M56.7477 62.7225C55.6906 65.6696 54.7235 68.6392 53.5314 71.5413C52.6318 73.746 54.0037 74.8034 55.4657 75.6583C56.2978 76.1532 56.2304 75.0509 56.4553 74.5784C56.3653 74.016 56.5677 73.5211 56.9051 73.0711C57.1525 72.7787 57.4224 72.3962 57.8272 72.5762C58.2321 72.7562 58.0971 73.2286 58.1646 73.5886C58.5244 75.8383 57.2874 77.953 57.6473 80.2252C57.6923 80.5401 57.6023 81.0351 57.0175 80.9451C56.7252 80.8551 56.4328 80.7651 56.1629 80.6751C56.7027 79.2803 56.8826 77.908 56.0054 76.5357C55.2408 76.6932 55.4432 78.5604 54.656 77.8405C53.7339 76.9856 51.9346 76.4457 52.047 75.0284C52.4294 70.529 54.0712 66.412 56.7477 62.7225Z" fill="#A6267D"/>
<path d="M60.5041 57.5256C59.3342 59.3254 58.4568 61.3276 56.7471 62.7224C57.7144 60.7877 58.9068 59.0104 60.5041 57.5256Z" fill="#A6267D"/>
<path d="M65.1389 52.5988C64.2616 53.4762 63.4067 54.3311 62.5293 55.2085C63.0467 53.9936 63.9241 53.1162 65.1389 52.5988Z" fill="#A6267D"/>
<path d="M61.9408 55.7706C61.8058 56.6255 61.1084 57.0305 60.501 57.5029C60.636 56.648 61.3334 56.2431 61.9408 55.7706Z" fill="#A6267D"/>
<path d="M138.505 59.5728C137.043 59.5278 135.783 58.6055 134.501 57.7731C132.363 56.4008 130.069 55.2759 128.269 53.4312C127.797 52.9362 127.437 52.5538 128.111 51.9014C128.651 51.3839 129.011 51.1815 129.619 51.8114C132.228 54.4885 135.715 54.511 139.068 54.916C140.417 55.0734 142.307 54.9609 142.262 56.8057C142.217 58.7404 140.575 59.5278 138.505 59.5728Z" fill="#E8415C"/>
<path d="M124.803 40.9229C124.803 42.2502 124.331 43.555 124.668 44.9048C124.781 45.3323 124.533 46.0972 124.196 46.2996C123.724 46.5921 123.229 46.0747 122.891 45.6697C121.406 43.9375 118.954 42.7676 119.247 39.978C119.472 37.8408 120.844 36.6709 122.936 36.401C124.106 36.2435 124.331 37.1434 124.443 38.0658C124.533 39.0331 124.668 39.978 124.803 40.9229Z" fill="#E73A55"/>
<path d="M54.7276 133.61C55.9196 136.107 56.212 138.717 55.5822 141.417C53.2656 145.399 51.8487 149.741 50.6567 154.15C50.2968 154.87 49.937 155.59 49.5996 156.31C50.8366 148.301 53.1082 140.382 51.8262 132.148C52.7483 132.283 52.6584 133.115 52.7933 133.7C53.2432 135.792 53.1082 137.907 53.1532 140.022C53.1757 140.607 52.9733 141.259 53.513 141.889C54.3677 141.124 54.7276 140.179 54.8175 139.099C54.9075 137.84 54.795 136.602 54.5251 135.365C54.4127 134.78 54.1878 134.15 54.7276 133.61Z" fill="#DBD220"/>
<path d="M54.7242 133.61C54.9492 136.175 56.0965 138.785 54.6117 141.327C54.2518 141.934 53.9593 142.879 53.1494 142.677C52.3395 142.474 52.722 141.529 52.6995 140.899C52.542 137.975 53.0819 134.983 51.8221 132.171C51.2372 131.496 50.6748 130.821 50.0898 130.146C50.2923 129.853 50.4948 129.583 50.6973 129.291C50.8097 129.066 50.9222 128.841 51.2597 128.976C53.1269 129.966 53.8468 131.856 54.7242 133.61Z" fill="#ECE334"/>
<path d="M51.2418 128.952C51.0619 129.064 50.8594 129.177 50.6795 129.267C44.8543 124.634 38.5794 125.668 32.1694 127.737C28.4359 128.929 24.6124 129.896 20.8564 130.976C22.4983 130.301 24.1401 129.627 25.8045 128.974C29.2681 127.715 32.7542 126.478 36.2178 125.218C37.0725 124.903 37.9271 124.566 38.7818 124.274C43.3025 122.812 47.1934 124.229 50.792 126.95C51.2418 127.287 51.7141 127.692 51.5567 128.39C51.4442 128.592 51.3542 128.772 51.2418 128.952Z" fill="#C6BE0B"/>
<path d="M51.5519 128.391C48.1549 124.904 44.1729 123.284 39.2911 124.589C38.2787 124.859 37.2438 124.994 36.209 125.196C36.9739 124.724 37.7613 124.229 38.5262 123.757C38.5712 123.757 38.6387 123.757 38.6612 123.734C43.408 118.605 46.7376 123.712 50.4271 125.489C51.282 125.916 53.6216 126.524 51.5519 128.391Z" fill="#D5CB01"/>
<path d="M59.3346 118.56C57.1974 116.58 55.5551 114.263 54.7227 111.451C54.5877 111.001 54.2953 110.349 54.9252 110.011C55.4651 109.719 55.96 110.146 56.32 110.506C59.4696 113.656 62.5741 116.828 65.7012 120C65.5437 120.18 65.3638 120.225 65.1388 120.225C64.3064 120.067 63.879 119.415 63.4065 118.83C62.7091 117.908 61.9667 117.008 60.8869 116.513C60.3244 116.22 59.9195 115.793 59.6045 115.253C59.0421 114.398 58.1872 113.836 57.4898 113.116C57.2874 112.913 57.0399 112.643 56.7474 112.801C56.365 113.026 56.545 113.408 56.6799 113.701C57.3773 115.118 58.2772 116.423 59.3121 117.615C59.4021 117.728 59.4471 117.863 59.4921 117.975C59.5595 118.223 59.5146 118.403 59.3346 118.56Z" fill="#F7EA36"/>
<path d="M65.992 120.292C68.4667 122.227 70.9414 124.161 73.3935 126.141C73.596 126.299 73.776 126.794 73.6635 126.996C73.4385 127.446 72.9211 127.626 72.4262 127.491C69.4116 126.636 66.532 125.489 64.2598 123.194C64.3048 123.149 64.3722 123.104 64.4172 123.059C65.1146 122.924 65.5421 123.464 66.082 123.757C67.4993 124.499 68.8266 125.444 70.6039 125.444C69.8615 124.071 68.5792 123.239 67.3643 122.362C66.9369 122.137 66.5769 121.822 66.307 121.417C66.127 121.057 65.7896 120.742 65.992 120.292Z" fill="#F7EA36"/>
<path d="M59.333 118.56C59.333 118.357 59.333 118.177 59.333 117.975C60.7953 118.087 61.3127 119.437 62.2351 120.225C62.775 120.675 63.5174 121.102 63.36 122.024C63.18 122.182 62.9775 122.182 62.7975 122.024C62.7076 121.934 62.5951 121.844 62.5051 121.732C61.4252 120.877 60.4579 119.91 59.603 118.83C59.5355 118.762 59.4455 118.65 59.333 118.56Z" fill="#F7EA3A"/>
<path d="M59.6309 118.852C60.5982 119.82 61.5656 120.787 62.533 121.755C61.2281 121.125 60.2608 120.157 59.6309 118.852Z" fill="#F7EA36"/>
<path d="M65.9848 120.292C66.1872 120.584 66.3672 120.877 66.5697 121.169C65.5573 121.439 65.1524 120.944 65.1299 119.999C65.3324 119.999 65.5123 119.999 65.7148 119.999C65.8048 120.112 65.8948 120.202 65.9848 120.292Z" fill="#F7EA3A"/>
<path d="M62.8223 122.024C63.0247 122.024 63.2047 122.024 63.4072 122.024C63.4747 122.024 63.5422 122.047 63.6097 122.047C64.0371 122.317 64.4645 122.542 64.2621 123.172C63.5422 123.104 63.1822 122.564 62.8223 122.024Z" fill="#F7EA36"/>
<path d="M99.8384 54.6461C99.726 54.6236 99.636 54.6236 99.5235 54.6011C99.4335 54.5561 99.3885 54.4886 99.411 54.4211C99.4335 54.3536 99.456 54.3311 99.501 54.3311C99.7935 53.1838 100.086 52.0364 100.378 50.8666C100.401 50.7766 100.423 50.6866 100.446 50.5741C100.986 50.3492 101.481 50.5291 101.998 50.6641C106.768 51.8565 110.907 54.2411 114.731 57.2557C115.226 57.6382 115.676 58.0881 115.969 58.6505C116.149 58.988 116.329 59.3704 116.081 59.7304C115.789 60.1803 115.316 60.1129 114.911 59.9329C113.584 59.3705 112.212 58.9205 110.839 58.4256C109.22 57.8407 107.622 57.1432 105.868 57.0308C103.798 56.4233 101.728 55.7484 99.8384 54.6461Z" fill="#8D1914"/>
<path d="M99.5302 54.331C99.5527 54.421 99.3502 54.691 99.3502 54.7809C99.1702 55.1859 99.1927 55.4109 98.9903 55.7933C97.0555 55.4109 95.1208 55.0284 93.186 54.646C90.4414 54.4885 87.6968 54.331 84.9521 54.1735C89.9015 52.6887 94.7158 53.3186 99.5302 54.331Z" fill="#912E50"/>
<path d="M105.892 56.6708C108.951 56.9633 111.672 58.4031 114.529 59.3704C114.956 59.5054 115.451 60.1128 115.811 59.6404C116.17 59.1455 115.608 58.6505 115.248 58.3356C111.47 54.961 107.152 52.5089 102.248 51.159C101.641 51.0016 101.056 50.7766 100.472 50.5741C100.652 50.0792 100.832 49.5843 101.011 49.1118C105.217 50.2817 109.266 51.789 112.864 54.2861C122.153 60.7428 127.618 69.5841 129.125 80.7876C129.845 86.0968 129.553 91.3611 127.506 96.4005C127.281 96.9629 127.146 97.7728 126.224 97.6603C126.201 97.6603 126.179 97.5928 126.179 97.5478C126.179 97.5028 126.179 97.4578 126.201 97.4128C126.561 94.2632 126.989 91.1137 126.764 87.9191C126.741 87.4242 126.584 86.9292 126.494 86.4343C125.887 85.7819 125.999 84.882 125.864 84.1171C125.302 80.5176 124.177 77.1206 122.603 73.836C122.4 73.4086 122.175 72.9811 122.243 72.4637C122.918 71.4738 123.48 72.7561 124.11 72.5537C124.38 70.1915 120.129 64.2973 117.7 63.6899C117.452 64.3423 118.307 64.9272 117.857 65.6021C117.205 65.8271 116.868 65.3546 116.508 64.9947C113.764 62.0701 110.548 59.7304 107.017 57.8181C106.544 57.5707 105.892 57.4132 105.892 56.6708Z" fill="#A01919"/>
<path d="M64.8418 56.0605C67.6532 52.5744 71.4991 50.6177 75.525 48.9983C80.8779 46.8617 86.3432 44.9049 92.2583 45.3997C95.2946 45.6471 98.2859 46.3219 101.322 46.8167C101.502 46.9516 101.57 47.1316 101.592 47.3565C101.615 47.5589 101.592 47.7613 101.525 47.9637C101.412 48.2111 101.277 48.4585 100.985 48.5485C98.6233 49.0883 96.3967 48.0762 94.1026 47.8738C86.4557 47.244 79.5284 49.2682 72.9161 52.8218C72.1514 53.2266 71.4092 53.6315 70.667 54.0363C69.4974 54.6885 68.5303 55.5882 67.3608 56.2179C66.4836 56.6677 65.584 57.185 64.8418 56.0605Z" fill="#922473"/>
<path d="M101.116 48.5718C101.228 48.3694 101.161 48.1669 101.273 47.9644C103.365 48.8193 105.592 49.2917 107.683 50.1466C113.216 52.3963 117.467 56.3108 121.493 60.5852C126.418 65.8495 129.14 72.1487 130.107 79.1452C131.051 85.8718 130.647 92.5984 127.678 98.9201C127.52 99.2575 127.363 99.64 126.981 99.8199C126.508 99.7075 126.036 99.5725 125.564 99.46C125.766 98.7851 125.946 98.1102 126.148 97.4578C127.385 97.0078 127.363 95.748 127.61 94.8256C130.759 82.6997 128.353 71.6762 120.548 61.98C115.713 55.9733 109.528 51.7439 101.926 49.8767C101.543 49.7867 101.026 49.7192 101.004 49.1343C100.981 48.9318 101.116 48.7518 101.116 48.5718Z" fill="#A21917"/>
<path d="M64.8432 56.0634C66.44 56.9633 67.4072 55.5235 68.5992 55.0061C69.2739 54.7136 69.7687 53.9937 70.6234 54.0387C67.4072 56.9408 63.966 59.6404 61.537 63.3074C60.4125 65.0172 59.4453 66.8395 58.4332 68.6167C58.0284 69.3366 58.0959 70.079 58.4782 70.8214C58.7256 71.4739 58.3658 71.9463 57.916 72.2387C57.4436 72.5537 57.2187 72.9586 57.0388 73.4311C56.8364 73.8135 56.6565 74.196 56.454 74.5784C55.1496 73.5211 54.9471 72.0363 55.4419 70.664C57.4211 65.0847 60.39 60.0679 64.8432 56.0634Z" fill="#932471"/>
<path d="M57.044 73.4309C56.954 72.2385 58.2813 71.8336 58.4838 70.8212C59.4287 69.5164 60.396 68.2116 61.3409 66.9067C58.8437 71.4961 58.4163 76.4005 58.7538 81.4398C58.3713 81.3723 57.9889 81.3048 57.6064 81.2373C57.4039 81.1473 57.2015 81.0348 57.0215 80.9449C57.3139 78.2677 57.5839 75.5906 57.8989 72.6435C57.5164 73.0034 57.269 73.2284 57.044 73.4309Z" fill="#98266C"/>
<path d="M122.396 72.2612C124.421 76.7831 126.31 81.3725 126.445 86.4343C125.523 86.9067 125.748 85.9393 125.703 85.7144C124.96 82.2273 124.016 78.8303 122.509 75.5907C118.483 66.9744 112.118 60.7877 103.459 56.8958C102.177 56.3333 100.49 56.2883 99.8379 54.6461C101.862 55.321 103.864 55.9959 105.888 56.6708C110.274 59.1005 114.3 62.0026 117.763 65.6246C119.9 67.4243 121.542 69.584 122.396 72.2612Z" fill="#CD2E18"/>
<path d="M107.335 61.2827C108.438 62.2276 109.585 63.1725 110.642 64.1623C110.98 64.4773 111.7 64.8597 111.205 65.3997C110.845 65.7821 110.372 65.2197 109.99 64.9722C109.472 64.6348 108.977 64.2523 108.483 63.9149C108.55 63.8474 108.595 63.7799 108.685 63.7124C107.335 62.3401 105.918 61.1027 103.826 61.0577C103.038 60.8103 102.296 60.5178 101.688 59.7754C102.948 59.1905 103.916 60.2029 105.018 60.1804C105.805 60.5178 106.57 60.9003 107.335 61.2827Z" fill="#E84863"/>
<path d="M101.352 47.4021C101.352 47.1996 101.509 47.1096 101.487 46.9072C101.576 46.8172 101.509 46.6147 101.599 46.5247C109.921 48.032 116.668 52.059 122.066 58.6281C124.99 62.1826 128.476 65.3322 129.983 69.8316C133.289 79.7527 134.706 89.7189 129.6 99.5501C129.443 99.8425 129.218 100.09 129.038 100.36C128.566 100.337 128.116 100.315 127.644 100.292C127.554 100.158 127.531 100.023 127.576 99.865C128.971 96.5355 130.387 93.1609 130.747 89.5389C131.782 78.5604 129.51 68.5718 121.616 60.3604C119.817 58.4931 117.995 56.6259 116.061 54.8711C112.462 51.6315 108.211 49.7193 103.578 48.5045C102.746 48.3245 101.801 48.347 101.352 47.4021Z" fill="#B51819"/>
<path d="M127.62 100.045C127.62 100.135 127.642 100.202 127.62 100.292C126.247 103.802 124.627 107.041 121.298 109.246C119.791 110.236 118.711 111.901 117.428 113.25C116.618 114.083 115.764 114.825 114.594 115.095C117.766 111.698 120.893 108.301 123.683 104.522C124.717 103.127 125.865 101.507 127.012 100.067C127.215 99.8647 127.417 99.8872 127.62 100.045Z" fill="#C76715"/>
<path d="M98.6934 120.877C99.3683 120.697 100.066 120.315 100.718 120.382C105.375 120.945 109.042 118.515 112.866 116.535C109.672 119.64 105.937 121.26 101.438 120.877C100.516 120.81 99.5932 120.877 98.6934 120.877Z" fill="#C76715"/>
<path d="M127.611 100.045C127.409 100.045 127.229 100.045 127.027 100.045C127.027 99.955 127.004 99.8875 127.004 99.7975C128.781 95.3206 130.175 90.7312 130.153 85.8719C130.108 78.9878 129.051 72.2162 125.227 66.3445C119.762 57.9081 112.677 51.384 102.556 48.9094C102.017 48.7744 101.387 48.7069 101.274 47.9645C101.297 47.7845 101.319 47.6045 101.342 47.4246C105.705 48.7294 110.226 49.7867 113.892 52.6664C122.438 59.393 129.366 67.2219 131.008 78.5604C132.065 85.8719 131.255 92.9359 128.151 99.6625C128.061 99.82 127.791 99.91 127.611 100.045Z" fill="#B11918"/>
<path d="M103.842 61.0126C104.224 60.2702 104.674 60.3377 106.766 61.5525C108.409 62.4974 109.241 63.3748 108.904 63.8247C108.859 63.8922 108.634 63.8472 108.499 63.8697C106.946 62.9248 105.394 61.98 103.842 61.0126Z" fill="#EE7D9A"/>
<path d="M136.227 55.501C136.902 55.5685 138.004 55.6585 139.084 55.8384C139.782 55.9509 140.457 56.3109 140.457 57.0983C140.457 57.8857 139.782 58.2906 139.084 58.3581C137.105 58.5606 135.53 57.7282 134.315 56.2209C133.82 55.591 133.977 55.4785 136.227 55.501Z" fill="#EA516D"/>
<path d="M123.862 40.2252C123.344 41.2376 123.952 43.1498 122.399 43.1049C121.229 43.0824 120.307 41.71 120.375 40.2027C120.442 39.0104 121.004 38.1555 122.287 38.1555C123.614 38.1555 123.569 39.3479 123.862 40.2252Z" fill="#EA516C"/>
<path d="M65.1424 120C65.5024 120.539 65.8623 121.079 66.5822 121.169C66.8747 121.462 67.1671 121.754 67.4596 122.024C68.0445 122.384 68.472 122.902 68.9444 123.374C69.2594 123.689 69.5743 124.026 69.3044 124.499C69.0119 125.016 68.517 125.016 68.0445 124.859C66.5822 124.341 65.2999 123.487 64.0851 122.542C63.8601 122.362 63.6576 122.159 63.4102 122.002C62.0603 120.652 60.7105 119.302 59.3607 117.952C58.7308 117.165 58.1234 116.355 57.6509 115.455C57.426 115.005 57.201 114.533 57.6284 114.15C58.1234 113.7 58.6183 113.925 59.0457 114.33C59.3157 114.6 59.6532 114.803 59.9456 115.073C60.3281 115.455 60.7105 115.838 61.093 116.22C62.0828 116.872 62.7128 117.885 63.7026 118.537C64.1751 119.055 64.6475 119.527 65.1424 120Z" fill="#F7EC55"/>
<path d="M59.9206 115.096C59.1107 115.163 58.5258 113.611 57.8734 114.443C57.266 115.23 58.3458 116.085 58.7283 116.918C58.9083 117.3 59.1332 117.638 59.3357 117.998C57.8509 116.693 56.7935 115.073 56.1411 113.206C56.0062 112.823 55.9162 112.396 56.3661 112.216C56.6136 112.126 57.0635 112.193 57.2435 112.373C58.1884 113.251 59.0432 114.173 59.9206 115.096Z" fill="#F7EA3A"/>
<path d="M63.6731 118.56C62.4808 118.155 61.8509 117.12 61.0635 116.243C62.2783 116.625 62.9082 117.682 63.6731 118.56Z" fill="#F7EA3A"/>
<path d="M63.3994 122.024C64.6143 122.767 65.7841 123.577 67.0439 124.229C67.6288 124.522 68.5062 125.084 69.0012 124.364C69.4511 123.734 68.5062 123.374 68.1688 122.902C67.9438 122.587 67.6738 122.317 67.4489 122.024C68.8887 122.722 69.9685 123.847 71.0934 124.949C71.3408 125.197 71.5883 125.489 71.2509 125.804C70.8684 126.186 70.3285 126.164 69.901 125.961C68.0113 125.062 66.144 124.117 64.2768 123.172C63.9618 122.812 63.6919 122.407 63.3994 122.024Z" fill="#F7EA3A"/>
<path d="M122.396 72.261C120.844 70.0338 119.314 67.8291 117.762 65.6019C117.919 64.702 116.232 63.7797 117.334 63.1497C118.234 62.6323 119.291 63.7347 119.944 64.5221C121.406 66.2768 123.003 67.9416 123.926 70.1013C124.353 71.1137 125.276 72.261 124.488 73.1384C123.746 73.9708 123.318 72.1485 122.396 72.261Z" fill="#B6242E"/>
</g>
<defs>
<clipPath id="clip0_10411_41074">
<rect width="168.75" height="168.75" fill="white" transform="translate(5.625 5.625)"/>
</clipPath>
</defs>
</svg>
