<?xml version="1.0" encoding="UTF-8" standalone="no"?>
<svg width="124px" height="48px" viewBox="0 0 124 48" version="1.1" xmlns="http://www.w3.org/2000/svg" xmlns:xlink="http://www.w3.org/1999/xlink">
    <!-- Generator: Sketch 46.2 (44496) - http://www.bohemiancoding.com/sketch -->
    <title>Grupo America</title>
    <desc>Created with Sketch.</desc>
    <defs></defs>
    <g id="Footer" stroke="none" stroke-width="1" fill="none" fill-rule="evenodd">
        <g id="Footer-Desktop" transform="translate(-871.000000, -47.000000)">
            <g id="footer-copy-2">
                <g id="Group-2" transform="translate(371.000000, 47.000000)">
                    <g id="Grupo-America" transform="translate(500.000000, 0.000000)">
                        <polygon id="Fill-1" fill="#FFEE2D" points="0 32 16 48 16 32"></polygon>
                        <polygon id="Fill-2" fill="#97BE0D" points="16 48 32 48 32 32 16 32"></polygon>
                        <polygon id="Fill-3" fill="#E10030" points="16 0 0 16 16 16"></polygon>
                        <polygon id="Fill-4" fill="#ED7F00" points="0 32 16 32 16 16 0 16"></polygon>
                        <polygon id="Fill-5" fill="#754489" points="32 16 48 16 32 0"></polygon>
                        <polygon id="Fill-6" fill="#E5418D" points="16 16 32 16 32 0 16 0"></polygon>
                        <polygon id="Fill-7" fill="#1BBAE8" points="32 32 48 32 48 16 32 16"></polygon>
                        <polygon id="Fill-8" fill="#4C7EB4" points="32 48 48 48 48 32 32 32"></polygon>
                        <g id="Group-33" transform="translate(57.534247, 13.068493)" fill="#FFFFFF">
                            <path d="M24.0586305,5.38912178 C23.4087856,5.59414848 22.8571613,5.70053343 22.4073077,5.70053343 C21.7720015,5.70053343 21.2668671,5.51065649 20.9074576,5.13780416 C20.563601,4.77976492 20.3947157,4.3146674 20.3947157,3.73611505 L20.3947157,2.12906257 C20.3947157,1.5350238 20.5488933,1.07026294 20.8609676,0.727541792 C21.2144602,0.347114581 21.7417407,0.156564314 22.4441615,0.156564314 C22.881167,0.156564314 23.3786939,0.232649756 23.9282896,0.39273218 L23.7827338,0.987275946 C23.3320349,0.842174948 22.8889435,0.773832714 22.4441615,0.773832714 C21.8866203,0.773832714 21.4972882,0.933578477 21.2746436,1.25340666 C21.1289187,1.4663449 21.0601136,1.77876654 21.0601136,2.18225505 L21.0601136,3.68999245 C21.0601136,4.61951416 21.5118268,5.08410669 22.4073077,5.08410669 C22.7665482,5.08410669 23.117505,5.03815243 23.4466538,4.94691723 L23.4466538,3.07390237 L24.0586305,2.99748026 L24.0586305,5.38912178 Z M28.9602428,2.76875261 C28.7688733,3.05844962 28.5017674,3.26364465 28.1492891,3.38568435 L28.5467359,4.20781112 L29.1284518,5.64030474 L28.3930655,5.64030474 L27.5440746,3.51529893 L26.5745479,3.51529893 L26.5745479,5.64030474 L25.9005283,5.64030474 L25.9005283,0.46110808 C26.5814791,0.255744718 27.1400347,0.15659798 27.5606419,0.15659798 C28.0803149,0.15659798 28.4929766,0.331325168 28.7989649,0.674382981 C29.0824691,1.00195438 29.2195721,1.40561121 29.2195721,1.88501683 C29.2195721,2.21292489 29.1353831,2.50228523 28.9602428,2.76875261 Z M28.3181744,1.12365742 C28.1423579,0.887994544 27.8896216,0.77386638 27.5606419,0.77386638 C27.2614157,0.77386638 26.9331122,0.818810657 26.5745479,0.910550847 L26.5745479,2.92883504 L27.47696,2.92883504 C27.8277477,2.92883504 28.0958679,2.82261841 28.2872374,2.60143197 C28.4551084,2.4108817 28.5389594,2.16713896 28.5389594,1.88501683 C28.5389594,1.58101173 28.4622087,1.32986243 28.3181744,1.12365742 Z M34.7564399,3.61367135 C34.7564399,4.93170014 34.0672054,5.7004661 32.8510284,5.7004661 C31.6510807,5.7004661 30.9391929,4.93170014 30.9391929,3.61367135 L30.9391929,0.217432668 L31.6123673,0.217432668 L31.6123673,3.75119747 C31.6123673,4.12455479 31.7122784,4.42906489 31.9095648,4.67348096 C32.1320403,4.9468499 32.4466505,5.08403935 32.8510284,5.08403935 C33.2489824,5.08403935 33.5629163,4.9468499 33.7843775,4.66523276 C33.991469,4.42149002 34.0905349,4.11697992 34.0905349,3.74345426 L34.0905349,0.217432668 L34.7564399,0.217432668 L34.7564399,3.61367135 Z M39.4738337,3.13440039 C39.1598998,3.46937834 38.7237396,3.63686731 38.180737,3.63686731 L37.3456086,3.63686731 L37.3456086,5.6403384 L36.6802107,5.6403384 L36.6802107,0.217399002 L38.180737,0.217399002 C38.7237396,0.217399002 39.1598998,0.385392965 39.4738337,0.727440794 C39.7712003,1.04019909 39.9169251,1.44335094 39.9169251,1.92342988 C39.9169251,2.41849025 39.7712003,2.82265208 39.4738337,3.13440039 Z M39.0063984,1.18530009 C38.815198,0.948795565 38.5404847,0.834330741 38.1731296,0.834330741 L37.3456086,0.834330741 L37.3456086,3.03592698 L38.180737,3.03592698 C38.5404847,3.03592698 38.8231435,2.91355062 39.0134987,2.66963954 C39.166662,2.47185106 39.2427364,2.2203651 39.2427364,1.92342988 C39.2427364,1.626158 39.166662,1.37534537 39.0063984,1.18530009 Z M45.3983431,3.60653413 C45.3983431,4.20090957 45.2232028,4.69546494 44.8707245,5.08397202 C44.4961001,5.4955404 43.9984041,5.7005671 43.394542,5.7005671 C42.791187,5.7005671 42.3016057,5.48762886 41.9259669,5.0689906 C41.5748411,4.67341363 41.3976721,4.18559148 41.3976721,3.60653413 L41.3976721,2.26611737 C41.3976721,1.67258358 41.5748411,1.17668156 41.9259669,0.780767936 C42.3016057,0.362466334 42.791187,0.15659798 43.394542,0.15659798 C43.9984041,0.15659798 44.4881545,0.369704551 44.8707245,0.804165893 C45.2232028,1.20748607 45.3983431,1.69480323 45.3983431,2.26611737 L45.3983431,3.60653413 Z M44.7329452,2.31207163 C44.7329452,1.90841479 44.6338794,1.56586197 44.4269568,1.28373984 C44.1901117,0.940682029 43.8460861,0.77386638 43.394542,0.77386638 C42.9436741,0.77386638 42.5988032,0.940682029 42.361789,1.28373984 C42.1716029,1.55811876 42.0716918,1.90100824 42.0716918,2.30432842 L42.0716918,3.55350998 C42.0716918,3.94942361 42.1716029,4.28440156 42.361789,4.56635535 C42.5988032,4.90857151 42.9436741,5.08397202 43.394542,5.08397202 C43.8460861,5.08397202 44.1901117,4.91665138 44.4269568,4.5737619 C44.6338794,4.29231309 44.7329452,3.95683016 44.7329452,3.5607482 L44.7329452,2.31207163 Z M10.133878,19.6042559 L7.98942365,19.6042559 L7.11558176,16.3524449 L3.15632908,16.3524449 L2.28316341,19.6042559 L0.139047196,19.6042559 L2.82701122,9.81583004 C3.20704538,8.45285698 3.9652541,7.77953448 5.13561731,7.77953448 C6.30699484,7.77953448 7.08261616,8.45285698 7.4619741,9.81583004 L10.133878,19.6042559 Z M6.62160497,14.5129278 L5.41675468,10.0294416 C5.36755987,9.81583004 5.26849402,9.70153355 5.13561731,9.70153355 C5.00476925,9.70153355 4.90604151,9.81583004 4.85650859,10.0294416 L3.65233452,14.5129278 L6.62160497,14.5129278 Z M23.8568979,19.6042727 L21.6970597,19.6042727 L21.0377477,14.283005 L20.7892379,11.3267826 L20.3285648,13.8399588 L19.4217573,16.9604719 C19.0417231,18.2251399 18.3822421,18.8649646 17.4255636,18.8649646 C16.4523178,18.8649646 15.774917,18.2251399 15.4129717,16.9604719 L14.5227315,13.8399588 L14.060706,11.3436156 L13.8132105,14.283005 L13.1532223,19.6042727 L10.9930459,19.6042727 L12.4935723,7.91118586 L14.9837427,7.91118586 L17.4411166,16.9104777 L19.8499719,7.91118586 L22.3408186,7.91118586 L23.8568979,19.6042727 Z M32.1062088,19.3414076 C32.1062088,19.5225313 32.0233722,19.60434 31.8587133,19.60434 L28.7585948,19.60434 C26.5798224,19.60434 25.3281441,18.3893296 25.3281441,16.4343377 L25.3281441,11.0974153 C25.3281441,9.14292837 26.5642694,7.91125319 28.7585948,7.91125319 L32.0407848,7.91125319 L32.0407848,9.8329156 L28.7585948,9.8329156 C28.2458529,9.8329156 27.8844148,9.96387683 27.7018361,10.2103129 C27.5373462,10.4075964 27.4551858,10.7520008 27.4551858,11.2610326 L27.4551858,12.6738316 L31.8424841,12.6738316 L31.8424841,14.594989 L27.4551858,14.594989 L27.4551858,16.270047 C27.4551858,16.7632557 27.5373462,17.1076602 27.7018361,17.3212718 C27.8844148,17.5678761 28.2458529,17.6826776 28.7585948,17.6826776 L32.1062088,17.6826776 L32.1062088,19.3414076 Z M41.5258829,19.6043232 L39.183466,19.6043232 L37.450659,15.3016241 L36.1164821,15.3016241 L36.1164821,19.6043232 L33.9885951,19.6043232 L33.9885951,8.46958904 C35.6375512,8.00970977 36.890751,7.77960181 37.7492089,7.77960181 C38.9195721,7.77960181 39.8434541,8.17383213 40.5348864,8.96212445 C41.1793215,9.68510448 41.4924102,10.5878616 41.4924102,11.6552461 C41.4924102,12.3290736 41.3105077,12.9367472 40.9656368,13.4950998 C40.5847574,14.1026051 40.0417549,14.5626527 39.3313885,14.8742326 L40.3217088,16.6647655 L41.5258829,19.6043232 Z M38.9685979,10.3087694 C38.6886439,9.89837938 38.2766585,9.70160088 37.7492089,9.70160088 C37.3027364,9.70160088 36.7577052,9.7665765 36.1164821,9.89837938 L36.1164821,13.5279243 L37.5837047,13.5279243 C38.1938218,13.5279243 38.6558474,13.3138078 38.9685979,12.9037544 C39.2160935,12.5755096 39.3486321,12.1649512 39.3486321,11.6552461 C39.3486321,11.1133898 39.2160935,10.6533422 38.9685979,10.3087694 Z M45.4519333,19.3414076 C45.4519333,19.5225313 45.369942,19.60434 45.2042687,19.60434 L43.3245535,19.60434 L43.3245535,7.91125319 L45.4519333,7.91125319 L45.4519333,19.3414076 Z M55.3827094,19.078391 C53.8485413,19.5226155 52.7106365,19.7357221 51.9343389,19.7357221 C50.4334745,19.7357221 49.2950626,19.3083306 48.5045645,18.4382296 C47.7945362,17.6662654 47.4317456,16.6483701 47.4317456,15.3672057 L47.4317456,12.1650522 C47.4317456,10.8675598 47.7945362,9.83283144 48.5045645,9.06069886 C49.2950626,8.2067576 50.4334745,7.77953448 51.9343389,7.77953448 C52.7425878,7.77953448 53.897567,7.97681797 55.3654659,8.3870397 L54.9034403,10.2758776 C53.6666388,9.89848038 52.6763184,9.71735663 51.9343389,9.71735663 C50.3344087,9.71735663 49.5434034,10.5879626 49.5434034,12.3449977 L49.5434034,15.186587 C49.5434034,16.9437903 50.3344087,17.8138913 51.9343389,17.8138913 C52.6107254,17.8138913 53.5827878,17.6169445 54.8534003,17.2233875 L55.3827094,19.078391 Z M66.384749,19.6042559 L64.2396185,19.6042559 L63.3657766,16.3524449 L59.406862,16.3524449 L58.5320058,19.6042559 L56.3885658,19.6042559 L59.0777132,9.81583004 C59.4579164,8.45285698 60.2152799,7.77953448 61.3858122,7.77953448 C62.5571897,7.77953448 63.332811,8.45285698 63.7121689,9.81583004 L66.384749,19.6042559 Z M62.8709545,14.5129278 L61.6667805,10.0294416 C61.6177547,9.81583004 61.5185198,9.70153355 61.3858122,9.70153355 C61.254795,9.70153355 61.1557292,9.81583004 61.1056891,10.0294416 L59.9023603,14.5129278 L62.8709545,14.5129278 Z" id="Combined-Shape"></path>
                        </g>
                    </g>
                </g>
            </g>
        </g>
    </g>
</svg>